<?xml version="1.0" encoding="UTF-8" standalone="no"?>
<svg
   height="210"
   viewBox="0 0 670.07998 210"
   width="670.07998"
   version="1.1"
   id="svg112"
   sodipodi:docname="binning.svg"
   inkscape:version="1.4.2 (unknown)"
   xmlns:inkscape="http://www.inkscape.org/namespaces/inkscape"
   xmlns:sodipodi="http://sodipodi.sourceforge.net/DTD/sodipodi-0.dtd"
   xmlns:xlink="http://www.w3.org/1999/xlink"
   xmlns="http://www.w3.org/2000/svg"
   xmlns:svg="http://www.w3.org/2000/svg">
  <sodipodi:namedview
     id="namedview112"
     pagecolor="#ffffff"
     bordercolor="#000000"
     borderopacity="0.25"
     inkscape:showpageshadow="2"
     inkscape:pageopacity="0.0"
     inkscape:pagecheckerboard="0"
     inkscape:deskcolor="#d1d1d1"
     inkscape:zoom="3.0845172"
     inkscape:cx="378.82752"
     inkscape:cy="79.428963"
     inkscape:window-width="3072"
     inkscape:window-height="1684"
     inkscape:window-x="0"
     inkscape:window-y="0"
     inkscape:window-maximized="1"
     inkscape:current-layer="g112" />
  <defs
     id="defs1">
    <clipPath
       id="a">
      <path
         clip-rule="evenodd"
         d="m0 0h2793v875.97659h-2793z"
         transform="scale(.24)"
         id="path1" />
    </clipPath>
    <path
       id="b"
       d="m.40950013.3085022c0 .0206604-.00291953.0395762-.00875854.05674744-.00582886.01717124-.01432801.03200276-.02549744.04449463-.01115927.01250203-.02473959.02217102-.04074097.02900696s-.03416952.01025391-.05450439.01025391c-.04266359 0-.07641602-.01242066-.10125733-.03726197-.02483113-.02483114-.04024251-.05924478-.04623413-.10324097zm.07200623-.23750305c-.01100669-.01333618-.02417502-.02492269-.03950501-.03475953-.01532998-.00982666-.03174845-.01790873-.04925537-.02424621-.01749673-.00632731-.0355784-.0110728-.05424499-.01423645-.0186666-.00317383-.03716532-.00476074-.05549622-.00476074-.03500367 0-.06725567.00591532-.09675599.01774597-.02950032.01184082-.05500285.0291748-.07650757.05200195-.02149454.02283732-.03824361.05108643-.05024719.08474732-.01199341.03367106-.01799011.07234192-.01799011.11601258 0 .03532919.00541687.06832376.01625061.09898376.01083374.03067017.02641296.05725608.04673767.07975769.02033488.02250161.0451711.04016621.07450867.05299378.02933757.01283772.06233723.0192566.09899903.0192566.03033447 0 .05841574-.00508627.08424377-.0152588.02583823-.01016237.048172-.02482607.06700134-.04399109.0188395-.01916504.0335897-.04283142.04425049-.07099914.01067099-.02816774.01600647-.06025187.01600647-.09625245 0-.0139974-.00150046-.02333069-.00450136-.02799989-.00300086-.00465901-.00866697-.00698851-.01699827-.00698851h-.33850098c.0009969-.03200277.00541178-.0598399.01324462-.08351136.00783284-.0236613.01874797-.04341125.03274537-.05924988.01400756-.01582845.03067524-.02765909.05000305-.03549194.01933796-.00783285.04100547-.01174927.06500245-.01174927.02233886 0 .04159036.00258383.05775451.00775147s.03008015.01074727.04174805.01673889c.01166788.00600179.02141824.01158651.0292511.01675415.00783285.00516764.0145823.00775146.0202484.00775146.00733439 0 .0130005-.00283304.0169983-.00849914z" />
    <path
       id="c"
       d="m.15449524.43299867c.01100667.01233926.02267456.02350869.03500366.0335083.0123291.0099996.02541097.01858011.0392456.02574158.01383465.00717163.02850343.01266985.04400636.01649475.01550293.003835.03225199.00575257.0502472.00575257.02766928 0 .05208334-.0045827.07324218-.01374817.02116904-.00916545.03883872-.02216593.05300904-.03900147s.0249176-.03708903.03224182-.0607605c.00733438-.02366129.01100159-.04982504.01100159-.07849123v-.3224945h-.0894928v.3224945c0 .03834026-.00875345.06808983-.02626039.08924867-.01749672.02116903-.04407753.03175353-.07974242.03175353-.02632651 0-.05090841-.0063324-.07374573-.0189972-.02283733-.01266477-.04391988-.02983091-.06324769-.0514984v-.3730011h-.08950805v.50650027h.05349731c.01267497 0 .0205129-.00616457.0235138-.01849367z" />
    <path
       id="d"
       d="m.28399659.51449587c.03699747 0 .07032776-.00616961.09999085-.01850892.02967325-.0123291.05500793-.02982585.07600402-.05249025.02100624-.0226644.03708902-.05007933.04824831-.08224486.01116943-.03216554.01675413-.06808474.01675413-.10775757 0-.03999837-.0055847-.07599895-.01675413-.10800171-.01115929-.0319926-.02724207-.05932618-.04824831-.08200074-.02099609-.02266438-.04633077-.04007975-.07600402-.05224609-.02966309-.01216634-.06299338-.01824951-.09999085-.01824951-.03733319 0-.07091778.00608317-.10075379.01824951-.02982585.01216634-.0552419.02958171-.07624817.05224609-.02099609.02267456-.03707886.05000814-.04824829.08200074-.01115926.03200276-.01673889.06800334-.01673889.10800171 0 .03967283.00557963.07559203.01673889.10775757.01116943.03216553.0272522.05958046.04824829.08224486.02100627.0226644.04642232.04016115.07624817.05249025.02983601.01233931.0634206.01850892.10075379.01850892m0-.45199587c.04999796 0 .08733115.01674906.11199951.05024719.02466837.03349813.03700257.08025106.03700257.1402588 0 .06033325-.0123342.10733031-.03700257.14099121-.02466836.03367105-.06200155.05050659-.11199951.05050659-.02532959 0-.04741414-.00433349-.06625367-.01300049-.01882934-.008667-.03449504-.02116903-.04699707-.0375061-.01250203-.0163269-.02183533-.03640747-.02799988-.0602417s-.00924682-.05075073-.00924682-.08074951c0-.06000774.01241557-.10676067.0372467-.1402588s.06258138-.05024719.11325074-.05024719z" />
    <path
       id="e"
       d="m.07049561 0v.50650027h.05349731c.01267497 0 .0205129-.00616457.0235138-.01849367l.00650024-.05200195c.01866658.02300009.03966267.04182944.06298828.05648804.02333577.01466877.05033875.02200318.08100892.02200318.03399658 0 .06157938-.00950117.08274841-.02850343.02116903-.01899209.03641763-.04465738.04574583-.07699585.0073344.0183309.01674908.03416441.02824404.04750061.01150513.01333618.02442423.02433777.03875733.03300476.01433303.008667.02958173.01499941.04574583.01899721.0161743.0039978.0325928.0059967.0492554.0059967.02666217 0 .05040997-.00425217.07124329-.01275637.02083331-.00849404.03849791-.02090963.05299377-.0372467.01450604-.0163269.02559404-.03640746.03326414-.0602417.0076701-.02383422.0115051-.05108642.0115051-.0817566v-.3224945h-.08950801v.3224945c0 .03967287-.00866699.0697581-.02600099.09025575s-.04233293.03074645-.07499693.03074645c-.01466877 0-.02858991-.00258382-.04176331-.00775145-.01316327-.00516765-.02474469-.01275125-.03474428-.02275086-.0099996-.0099996-.01791891-.022583-.02375793-.03775024-.00582886-.01516725-.00874329-.03275046-.00874329-.05274965v-.3224945h-.08949279v.3224945c0 .04066979-.00816857.07100426-.02450562.09100343-.0163269.01999917-.04015605.02999877-.07148745.02999877-.02200315 0-.04233804-.0059153-.06100462-.01774596s-.03583272-.02791344-.05149842-.04824829v-.37750245z" />
    <path
       id="f"
       d="m.36549378.42300416c-.0039978-.00733438-.01016235-.01100159-.01849365-.01100159-.00500488 0-.01067605.00183106-.01701355.00549317-.0063273.00367226-.0140737.00775656-.02323913.01225281-.00916545.00449624-.02008057.00866189-.03274536.01249694-.0126648.00383506-.0276642.00575257-.04499819.00575257-.01500446 0-.0285085-.00191751-.04051208-.00575257-.0119934-.00383505-.02224223-.00908409-.03074646-.01574709-.00849406-.00666297-.0149943-.01441444-.01950073-.02325437-.00449626-.00882974-.00674438-.01841226-.00674438-.02874756 0-.01300049.00374858-.02383423.01124572-.03250122.00750733-.00866699.01742554-.01616922.02975464-.02250671.0123291-.00632731.02632649-.01190696.04199219-.0167389.01567586-.00483194.03176372-.0099996.04826356-.01550294.01649984-.00549315.03258261-.01157631.04824829-.0182495.01566568-.006663.02966308-.0149943.04199219-.0249939.01233926-.00999959.02225746-.0222524.02975463-.03675842.00749717-.01449585.01124573-.03191121.01124573-.0522461 0-.02333577-.00416565-.04492187-.01249695-.0647583-.00833129-.01982626-.02066549-.03699239-.03700256-.05149841-.0163269-.01449585-.03632609-.02590943-.05999756-.03424073-.02367148-.0083313-.05100506-.01249695-.08200074-.01249695-.03532918 0-.06732686.00574748-.09599304.01724244-.02866618.01150512-.05300395.02625529-.07301331.04425049l.02101136.03399658c.0026652.00433349.00582885.007665.00949096.0099945.00367228.00233969.00834147.00350953.01400757.00350953.00600179 0 .01233419-.0023346.01899719-.00700379.00666301-.00465902.01474508-.00982157.02424622-.01548767s.02108256-.01083374.03474426-.01550293c.01367188-.00466919.03067525-.00700378.05101013-.00700378.01733399 0 .03250123.00224812.04550172.00674438.01300049.00450643.02383423.0105896.03250122.01824951.00866699.00767009.01508078.01650492.01924133.02650452.00417075.0099996.0062561.02066548.0062561.03199768 0 .01400757-.00375365.02559407-.011261.03475952-.00749714.00916545-.01741026.01699829-.02973936.02349853-.0123291.00650025-.02641297.01216634-.04225159.0169983-.01582845.00483195-.0319926.00991313-.04849243.01524353-.01649984.00534057-.03266907.01142375-.04850769.01824951-.01582846.00683595-.02991232.01542155-.04225159.02575685-.0123291.01033529-.02224732.02308654-.02975464.03825378-.00749715.01516723-.01124573.0335795-.01124573.05523682 0 .01933798.0039978.03792318.01199341.05575561.00800578.01783243.01967367.03349814.03500366.04699707.01534017.01349893.03417461.02424622.0565033.03224183.02233886.0080058.04784138.01200867.07650756.01200867.0333252 0 .06323753-.00524907.08973695-.01574708.02650962-.01049805.04942832-.02491251.06875611-.04324341z" />
    <path
       id="g"
       d="m.164505.50650027v-.50650027h-.08900451v.50650027zm.0189972.15899653c0-.00866694-.00174968-.01674903-.00524902-.0242462-.00349935-.0074971-.00816854-.0141652-.01400758-.02000424-.00582885-.00582886-.01265971-.01041156-.02049255-.01374817-.00783284-.0033366-.01608276-.00500489-.02474975-.00500489-.008667 0-.01675415.00166829-.02426148.00500489-.00749715.00333661-.01407877.00791931-.01974487.01374817-.0056661.00583904-.01016744.01250714-.01350403.02000424-.00332641.00749717-.00498962.01557926-.00498962.0242462 0 .008667.00166321.01691698.00498962.0247498.00333659.0078328.00783793.0146637.01350403.02049256.0056661.00583904.01224772.01042682.01974487.01376343.00750733.00333661.01559448.00500488.02426148.00500488.00866699 0 .01691691-.00166827.02474975-.00500488s.0146637-.00792439.02049255-.01376343c.00583904-.00582886.01050823-.01265976.01400758-.02049256.00349934-.00783282.00524902-.0160828.00524902-.0247498z" />
    <path
       id="h"
       d="m.34500123.22799683c-.04100546-.0013326-.07592264-.00458272-.10475159-.00975037-.02882894-.00516765-.05232747-.01191711-.07049561-.02024841s-.03133647-.01816305-.039505-.02949524c-.00816855-.0113322-.01225281-.02400208-.01225281-.03800964 0-.01332602.00216675-.02482605.00650024-.03450013.0043335-.0096639.01024883-.01757812.01774597-.02374267.00750733-.00616455.01634217-.0106659.02650452-.01350403.01017253-.00282796.02109273-.00424194.03276062-.00424194.0156657 0 .02999878.00158183.04299927.00474548s.02524821.00774638.03674316.01374817c.01149497.00600179.02249146.01316833.0329895.02149963.0105082.0083313.02076213.01783244.03076173.02850342zm-.28750611.20700074c.02800497.02699789.05817159.04716492.09049988.0605011.03233845.01333619.06817119.02000423.10749817.02000423.02834067 0 .05350748-.00466913.07550049-.01400751.02200318-.00932824.04050192-.02232872.05549622-.03900149.01500448-.0166626.02634176-.03682961.03401182-.0605011.00767009-.0236613.01150515-.0496572.01150515-.07798766v-.32400514h-.03950501c-.00866699 0-.01533508.00141398-.02000427.00424194-.00466919.00283814-.0083364.00842286-.01100159.01675415l-.00999451.04800416c-.01333618-.01232911-.02633667-.02324422-.03900147-.03274537-.0126648-.00950113-.02600097-.01750183-.04000854-.02400207-.0139974-.00650025-.02891541-.01150004-.04475403-.01499939-.01582845-.00349935-.03340657-.00524903-.05273438-.00524903-.01967366 0-.03817749.00274659-.05551147.00823975-.01732382.00550334-.03240458.01375326-.04524231.02474976-.01283773.01100667-.02300517.02492269-.03050232.04174804-.00749715.01683554-.01124573.03675334-.01124573.05975342 0 .01999919.00549825.03925069.01649475.05775452.01100668.01850383.02883911.03492229.05349732.04925537.02466838.01433309.05683391.02608238.09649658.03524781.03967285.00916544.0883433.01441444.14601136.01574707v.03950501c0 .03932699-.00849914.06907144-.02549744.0892334-.01699829.02017211-.0418345.03025816-.07450867.03025816-.021993 0-.04041036-.00275166-.05525208-.008255-.01483154-.00549315-.02766418-.01165771-.03849792-.01849364-.01083374-.00683596-.02016704-.01300559-.02799988-.01850891-.00783285-.00549317-.01557922-.00823975-.02323914-.00823975-.00600179 0-.01116943.0015818-.01550292.00474548-.0043335.00317382-.0080007.00709022-.01100159.01174927z" />
    <path
       id="i"
       d="m.1625061.736496v-.736496h-.08900451v.736496z" />
    <path
       id="j"
       d="m.24699402.24749756c.01800538 0 .03383891.00249736.04750062.00749207.01367186.00500487.0251719.01200867.03450012.02101136.00933838.00900268.01633707.01974997.02099609.03224181.00466919.01250205.00700379.02625529.00700379.04125977 0 .0309957-.00941467.05565897-.02824404.07398987-.01882933.01834106-.04608152.0275116-.08175658.0275116-.03600056 0-.06341553-.00917054-.08224487-.0275116-.01882935-.0183309-.02824402-.04299417-.02824402-.07398987 0-.01500448.00241597-.02875772.00724792-.04125977.00483195-.01249184.01191204-.02323913.02124024-.03224181.00933838-.00900269.02083842-.01600649.03450012-.02101136.01367188-.00499471.02950542-.00749207.04750061-.00749207m.16050721-.2749939c0 .0123291-.00349936.0223287-.01049805.02999878-.00699868.00767009-.01641845.01366679-.02825928.01799011-.01183065.0043335-.02557882.00741578-.0412445.00924683-.0156657.00184123-.032252.0032603-.04975891.0042572-.01749674.00100708-.03524781.00200908-.05325319.00300599-.01799519.0009969-.03532409.0026652-.05198669.00500488-.01866658-.00866699-.03392029-.0195872-.04576111-.03276062-.01183065-.01316325-.01774597-.02857972-.01774597-.0462494 0-.01133219.00291443-.02191162.00874329-.03173828.00583903-.00983683.01476033-.01833597.02676391-.02549743.01200359-.00717163.02708436-.01283773.04524231-.01699829.01816814-.00417074.03958638-.00625611.06425476-.00625611.02399699 0 .04549663.00216675.0644989.00650025.0190023.00432332.03508507.01048787.0482483.01849365.01317344.0079956.0232595.01749674.03025818.02850342.00699869.0109965.01049805.02316284.01049805.03649902m.09049987.51399232v-.0329895c0-.01100668-.0069987-.01801048-.0209961-.02101135l-.05751036-.00749207c.01133216-.02200317.01699829-.04633586.01699829-.07299806 0-.02466835-.00475058-.04708861-.01425173-.06726073-.00949095-.02016197-.02257282-.03740947-.0392456-.05174256-.0166626-.01433308-.03666176-.02533467-.05999754-.03300476-.02333579-.00765991-.04867046-.01148987-.07600404-.01148987-.0236613 0-.04599507.00283306-.06700134.00849915-.01066081-.00667317-.01882427-.01375835-.02449036-.0212555-.00566609-.00749714-.00849914-.01508076-.00849914-.02275085 0-.01200359.00491332-.02108765.01473999-.0272522.00983683-.00616455.02275593-.01057943.03875732-.01324463s.0342509-.00433349.05474854-.00500488c.02049765-.00066122.04149375-.00174459.06298827-.00325012.02150474-.00149536.0425059-.00407919.06300355-.00775147.02050782-.00366211.03876243-.0096639.0547638-.01800537.01600135-.0083313.0289154-.01983134.03874205-.03450012.00983684-.01465861.01475526-.0336558.01475526-.05699158 0-.02166748-.00541687-.04266866-.01625061-.06300354-.01083375-.02033488-.02641806-.03841654-.04675295-.054245-.02033485-.01583862-.04525245-.02850341-.0747528-.03799438-.02950032-.00950114-.06274922-.01425171-.0997467-.01425171s-.06933085.00366719-.09700012.01100159c-.02766926.00732422-.05066935.01715596-.06900024.02949524-.0183309.0123291-.03207906.02658081-.04124451.04275512-.00916545.01616415-.01374817.03308106-.01374817.05075074 0 .02499389.00783285.04615784.02349854.06349182.01566568.01733398.03716532.03116862.0644989.04150391-.01500448.006663-.0269216.01557922-.03575135.02674865-.00882975.01116944-.01324462.02625021-.01324462.04524232 0 .00733439.0013326.01491801.0039978.02275085s.00674438.01566569.01223755.02349853c.00550333.00783284.0122528.01524862.02024841.02224732.00800578.00700886.01734415.01317851.02801514.01850891-.02500407.01399739-.04450989.03257752-.05851746.05574036-.01399739.02317301-.02099609.05009461-.02099609.08076476 0 .02466838.00475057.04708354.01425171.0672455.00950113.02016195.02275085.03732809.03974914.0514984.01700847.01417033.03726197.02508546.0607605.03274539.02349854.0076701.04924519.01150511.07723999.01150511.02200318 0 .04250588-.00241594.06150818-.00724791.0190023-.00483199.03633628-.01191713.05200196-.02125551z" />
    <path
       id="k"
       d="m.34300233.07699585c.02766927 0 .05150351.00316366.07150267.00949097.01999919.00633748.03641258.0152537.04924013.02674865.01283773.01150513.02225747.02517193.02825927.04100037.0060018.01583863.0090027.03325908.0090027.05226135 0 .03699749-.01316834.06624858-.03950501.08775331-.02633669.02150473-.06583659.03225708-.11849976.03225708h-.15499879v-.24951173zm-.15499879.56300355v-.24450684h.12799073c.02733359 0 .05108133.00300089.07124329.00900269.02017212.0060018.03683981.0143331.05000304.0249939.01317344.01067099.0229238.02359008.0292511.03875732.0063375.01516723.00950623.03175353.00950623.04975893 0 .04232788-.01266989.07324218-.03800964.0927429-.02532959.0195007-.06465659.0292511-.11798096.0292511zm.13200379.07650758c.04399617 0 .08190917-.00433349.11373902-.01300049.03183999-.00866699.05800882-.02100119.07850645-.03700259.0204976-.0160014.03557846-.03558853.0452423-.0587616.0096741-.02316281.0145111-.04924514.0145111-.07824704 0-.01765948-.0027516-.03457643-.008255-.05075076-.00550331-.01616414-.0137532-.0312449-.02474971-.0452423-.01099652-.0139974-.02491259-.0265808-.04174806-.03775024-.01683554-.01116943-.03658548-.02025351-.05924988-.02725219.05266318-.00999961.09224445-.02875267.11874391-.05625917.02649944-.02749633.03974914-.06357829.03974914-.10824585 0-.03033447-.00558471-.05800374-.01675414-.08300781-.01115926-.0249939-.02749128-.04649353-.04899598-.0644989-.02149458-.0179952-.04791261-.03191122-.07925418-.04174805-.03133137-.00982666-.06699623-.01473999-.10699461-.01473999h-.25299073v.71650698z" />
  </defs>
  <g
     clip-path="url(#a)"
     id="g112">
    <path
       d="m.6735077.34449769v-.2749939c-.03600053-.02600098-.0744222-.04542033-.1152649-.05825806-.0408325-.01282756-.08558144-.01924134-.13424682-.01924134-.05766808 0-.10967001.00891622-.15600588.02674866-.04632567.01783244-.08590697.04283142-.11874388.07499695-.03282675.03216553-.05807495.07074483-.07574463.11573792-.01766968.04500327-.02650452.09450785-.02650452.14851378 0 .05466716.00858053.1044973.02574158.14949039.01717123.04500321.04159037.08358761.07325745.11575317.03166706.03216553.07016499.05708313.11549378.07475281.04533896.01766963.0960083.02650452.15200805.02650452.02833047 0 .05466207-.00208539.07899476-.00625611.02434281-.00416058.04684449-.01015728.06750489-.01799011.0206706-.00783287.03983562-.01733398.05749512-.02850347.01766968-.0111694.0341746-.02375281.04951477-.0377502l-.0275116-.04400634c-.00433349-.00666306-.00991821-.0109151-.01675417-.01275636-.00682572-.00183104-.0144043-.00024413-.0227356.00476076-.0080058.00466914-.0171763.01033524-.0275116.01699824-.0103251.00666307-.0229085.0130768-.03775021.01924138-.01483159.00617472-.03233339.01142882-.05250551.01576232-.02016198.0043335-.04407248.0065002-.07173158.0065002-.04033406 0-.07683815-.0065867-.10951232-.0197601-.03266398-.0131633-.06049602-.0319977-.0834961-.0565033-.02300008-.0244954-.04066975-.0541585-.05300903-.08898925-.0123291-.03483072-.01849365-.07391357-.01849365-.11724855 0-.04500325.00641377-.08525593.01924133-.12075805.01283772-.03549194.03117371-.06565856.05500793-.09049987.02383423-.02483114.05274964-.04374695.08674623-.05674744.03400674-.01300049.07217407-.01950073.11450195-.01950073.03333536 0 .06291706.00374857.08874513.01124572.0258382.00750733.05109149.01792908.07575989.03126526v.15748597h-.11149599c-.00633749 0-.01142373.00183104-.01525879.00549317-.00382488.00367227-.0057373.00817871-.0057373.01351927v.05499269z"
       fill="#333"
       transform="matrix(14.374999 0 0 -14.374999 3.928223 17.249993)"
       id="path2"
       style="fill:#666666;fill-opacity:1" />
    <use
       fill="#333"
       transform="matrix(14.374999 0 0 -14.374999 14.342899 17.249993)"
       xlink:href="#b"
       id="use2"
       style="fill:#666666;fill-opacity:1" />
    <use
       fill="#333"
       transform="matrix(14.374999 0 0 -14.374999 21.932896 17.249993)"
       xlink:href="#c"
       id="use3"
       style="fill:#666666;fill-opacity:1" />
    <use
       fill="#333"
       transform="matrix(14.374999 0 0 -14.374999 29.954136 17.249993)"
       xlink:href="#d"
       id="use4"
       style="fill:#666666;fill-opacity:1" />
    <use
       fill="#333"
       transform="matrix(14.374999 0 0 -14.374999 38.104764 17.249993)"
       xlink:href="#e"
       id="use5"
       style="fill:#666666;fill-opacity:1" />
    <use
       fill="#333"
       transform="matrix(14.374999 0 0 -14.374999 49.92819 17.249993)"
       xlink:href="#b"
       id="use6"
       style="fill:#666666;fill-opacity:1" />
    <use
       fill="#333"
       transform="matrix(14.374999 0 0 -14.374999 57.518186 17.249993)"
       xlink:href="#f"
       id="use7"
       style="fill:#666666;fill-opacity:1" />
    <use
       fill="#333"
       transform="matrix(14.374999 0 0 -14.374999 67.42255 17.249993)"
       xlink:href="#g"
       id="use8"
       style="fill:#666666;fill-opacity:1" />
    <use
       fill="#333"
       transform="matrix(14.374999 0 0 -14.374999 70.87254 17.249993)"
       xlink:href="#c"
       id="use9"
       style="fill:#666666;fill-opacity:1" />
    <use
       fill="#333"
       transform="matrix(14.374999 0 0 -14.374999 82.57378 17.249993)"
       xlink:href="#h"
       id="use10"
       style="fill:#666666;fill-opacity:1" />
    <use
       fill="#333"
       transform="matrix(14.374999 0 0 -14.374999 97.07814 17.249993)"
       xlink:href="#f"
       id="use11"
       style="fill:#666666;fill-opacity:1" />
    <use
       fill="#333"
       transform="matrix(14.374999 0 0 -14.374999 103.302509 17.249993)"
       xlink:href="#h"
       id="use12"
       style="fill:#666666;fill-opacity:1" />
    <use
       fill="#333"
       transform="matrix(14.374999 0 0 -14.374999 110.44687 17.249993)"
       xlink:href="#e"
       id="use13"
       style="fill:#666666;fill-opacity:1" />
    <path
       d="m.16000366.12199402c.01632691-.021993.03415426-.03749084.05348206-.04649353.01933797-.00900269.04101054-.01350403.06501771-.01350403.04733276 0 .08366394.01683045.10899353.05049133.02533974.03367107.03800964.08167522.03800964.14401246 0 .03299965-.00291952.06133015-.00875854.08499145-.00582886.02367149-.01424662.04309083-.0252533.05825807-.01099649.01516723-.02449546.02625021-.04049683.0332489s-.03416953.01049803-.05450439.01049803c-.0289917 0-.05440777-.0066681-.07624818-.02000426-.02183024-.01332604-.04191081-.03215536-.0602417-.05648804zm-.00450134.30599976c.02133178.02633667.04599507.04750571.07398987.06350708.02800498.01600142.06000771.02400204.09600831.02400204.02933755 0 .055837-.0055847.07949829-.01675411.02367148-.01116943.0438385-.02766929.0605011-.04949951.0166626-.02183023.02949524-.04891458.03849791-.08125305.0090027-.03232828.01350406-.06949363.01350406-.11149598 0-.03733318-.00499986-.07208252-.01499939-.10424805-.00999962-.03216553-.02441918-.06000265-.04325869-.08351135-.01882934-.02349854-.04182943-.04199728-.06900024-.05549622-.02716064-.01349894-.05774435-.02024841-.0917511-.02024841-.0309957 0-.0575765.00524902-.07974244.01574707-.02216594.01050821-.04174804.02509562-.05874634.04376221v-.22399903h-.08950805v.6779938h.05349731c.01267497 0 .0205129-.00616457.0235138-.01849367z"
       fill="#333"
       transform="matrix(14.374999 0 0 -14.374999 122.270298 17.249993)"
       id="path13"
       style="fill:#666666;fill-opacity:1" />
    <use
       fill="#333"
       transform="matrix(14.374999 0 0 -14.374999 130.32749 17.249993)"
       xlink:href="#i"
       id="use14"
       style="fill:#666666;fill-opacity:1" />
    <use
       fill="#333"
       transform="matrix(14.374999 0 0 -14.374999 133.71999 17.249993)"
       xlink:href="#b"
       id="use15"
       style="fill:#666666;fill-opacity:1" />
    <path
       d="m.2899933.36950685c.02800497 0 .05275473.00341285.07424926.01023864.02150473.00683594.03950501.01650491.05400084.02900696.01450603.01250205.02542626.02742005.03276064.04475403.00733436.01733398.01100159.03649902.01100159.05749512 0 .04266359-.01400248.0748291-.04200745.09649659-.02799478.02166748-.06999208.03250121-.12599182.03250121h-.10600282v-.27049255zm.3310089-.36950685h-.08599851c-.01766969 0-.03067019.00683085-.03900149.02049255l-.18600463.25601198c-.00566611.0079956-.01174927.01374307-.01824951.01724243-.00650026.00349934-.01658121.00524902-.03024292.00524902h-.0735016v-.29899598h-.09649658v.71650698h.2024994c.04532874 0 .08449301-.00458788.11749267-.01376342.03299967-.00916547.0602468-.02241517.08174134-.03974916.02150471-.017334.03742473-.03824871.04776002-.06274413.01033527-.02449547.01550291-.0519104.01550291-.08224487 0-.02533977-.0040029-.04901125-.0120087-.07101442-.0079956-.02199301-.019577-.04174295-.03474421-.05924988-.01516725-.01749674-.03367107-.03241477-.05551149-.04475403-.02183023-.0123291-.04657492-.02165732-.07423401-.02798462.0123291-.00699869.022995-.01716615.03199768-.03050232z"
       fill="#333"
       transform="matrix(14.374999 0 0 -14.374999 227.06638 17.249993)"
       id="path15"
       style="fill:#666666;fill-opacity:1" />
    <use
       fill="#333"
       transform="matrix(14.374999 0 0 -14.374999 235.60514 17.249993)"
       xlink:href="#b"
       id="use16"
       style="fill:#666666;fill-opacity:1" />
    <use
       fill="#333"
       transform="matrix(14.374999 0 0 -14.374999 243.19513 17.249993)"
       xlink:href="#h"
       id="use17"
       style="fill:#666666;fill-opacity:1" />
    <path
       d="m.40049745.3860016c-.0166626.0223287-.03466288.03790793-.05400086.04673767-.01932779.00883993-.04099529.01325989-.06500244.01325989-.04699708 0-.08316549-.01683556-.10850526-.0505066-.02532959-.03366089-.03799439-.08165996-.03799439-.14399719 0-.03299969.00283306-.06124879.00849915-.08474732.0056661-.02349854.0139974-.04283142.0249939-.05799866.01100667-.01516724.0245107-.02625021.04051209-.0332489.01600138-.0069987.03416951-.01049805.0545044-.01049805.02932739 0 .05490622.006663.07673645.01998902.02184041.01333618.04192605.03217061.06025696.05650329zm.08900451.3504944v-.736496h-.05300903c-.0126648 0-.0206604.00616455-.02398683.01849365l-.00801085.06150818c-.02166748-.02600097-.04633585-.04700215-.07400515-.06300354-.02765907-.01600138-.05965675-.02400207-.09599303-.02400207-.02900187 0-.05533854.00558471-.07901001.01675415-.0236613.01116943-.04382324.02758789-.06048584.04925537s-.02949524.04866537-.03849792.08099365c-.00900269.03233846-.01350403.06950379-.01350403.11149598 0 .03733316.0049998.07208252.01499939.10424803.00999959.0321757.02433268.06009423.04299927.0837555.01866658.02367149.0415802.04225669.06874084.05575563.02717082.01349897.0577596.02024837.09176637.02024837.03099569 0 .0575765-.00525404.07974243-.0157623.02216592-.01049804.04191589-.02508034.05924988-.04374694v.28050234z"
       fill="#333"
       transform="matrix(14.374999 0 0 -14.374999 250.33951 17.249993)"
       id="path17"
       style="fill:#666666;fill-opacity:1" />
    <use
       fill="#333"
       transform="matrix(14.374999 0 0 -14.374999 258.38954 17.249993)"
       xlink:href="#f"
       id="use18"
       style="fill:#666666;fill-opacity:1" />
    <g
       stroke-miterlimit="10"
       stroke-width="8"
       id="g43">
      <path
         d="m331 256.33h40"
         fill="none"
         stroke="#2e86b2"
         transform="matrix(.71874997 0 0 .71874997 -56.749998 -86.25)"
         id="path18" />
      <path
         d="m359 200.16h40"
         fill="none"
         stroke="#2e86b2"
         transform="matrix(.71874997 0 0 .71874997 -56.749998 -86.25)"
         id="path19" />
      <path
         d="m391 187.16h40"
         fill="none"
         stroke="#2e86b2"
         transform="matrix(.71874997 0 0 .71874997 -56.749998 -86.25)"
         id="path20" />
      <path
         d="m361 291.92h40"
         fill="none"
         stroke="#2e86b2"
         transform="matrix(.71874997 0 0 .71874997 -56.749998 -86.25)"
         id="path21" />
      <path
         d="m420 297.16h40"
         fill="none"
         stroke="#2e86b2"
         transform="matrix(.71874997 0 0 .71874997 -56.749998 -86.25)"
         id="path22" />
      <path
         d="m320 277.16h40"
         fill="none"
         stroke="#2e86b2"
         transform="matrix(.71874997 0 0 .71874997 -56.749998 -86.25)"
         id="path23" />
      <path
         d="m441 187.16h40"
         fill="none"
         stroke="#525866"
         transform="matrix(.71874997 0 0 .71874997 -56.749998 -86.25)"
         id="path24" />
      <path
         d="m471 252.16h40"
         fill="none"
         stroke="#2e86b2"
         transform="matrix(.71874997 0 0 .71874997 -56.749998 -86.25)"
         id="path25" />
      <path
         d="m408 207.16h40"
         fill="none"
         stroke="#ee9d96"
         transform="matrix(.71874997 0 0 .71874997 -56.749998 -86.25)"
         id="path26" />
      <path
         d="m371 221.96h40"
         fill="none"
         stroke="#ee9d96"
         transform="matrix(.71874997 0 0 .71874997 -56.749998 -86.25)"
         id="path27" />
      <path
         d="m431 221.96h40"
         fill="none"
         stroke="#ee9d96"
         transform="matrix(.71874997 0 0 .71874997 -56.749998 -86.25)"
         id="path28" />
      <path
         d="m321 187.16h40"
         fill="none"
         stroke="#ee9d96"
         transform="matrix(.71874997 0 0 .71874997 -56.749998 -86.25)"
         id="path29" />
      <path
         d="m321 237.16h40"
         fill="none"
         stroke="#ee9d96"
         transform="matrix(.71874997 0 0 .71874997 -56.749998 -86.25)"
         id="path30" />
      <path
         d="m422 248.16h40"
         fill="none"
         stroke="#ee9d96"
         transform="matrix(.71874997 0 0 .71874997 -56.749998 -86.25)"
         id="path31" />
      <path
         d="m469 281.96h40"
         fill="none"
         stroke="#ee9d96"
         transform="matrix(.71874997 0 0 .71874997 -56.749998 -86.25)"
         id="path32" />
      <path
         d="m403 276.96h40"
         fill="none"
         stroke="#ee9d96"
         transform="matrix(.71874997 0 0 .71874997 -56.749998 -86.25)"
         id="path33" />
      <path
         d="m386 312.16h40"
         fill="none"
         stroke="#ee9d96"
         transform="matrix(.71874997 0 0 .71874997 -56.749998 -86.25)"
         id="path34" />
      <path
         d="m458 312.16h40"
         fill="none"
         stroke="#ee9d96"
         transform="matrix(.71874997 0 0 .71874997 -56.749998 -86.25)"
         id="path35" />
      <path
         d="m387 237.16h40"
         fill="none"
         stroke="#525866"
         transform="matrix(.71874997 0 0 .71874997 -56.749998 -86.25)"
         id="path36" />
      <path
         d="m451 267.16h40"
         fill="none"
         stroke="#525866"
         transform="matrix(.71874997 0 0 .71874997 -56.749998 -86.25)"
         id="path37" />
      <path
         d="m481 236.76h40"
         fill="none"
         stroke="#525866"
         transform="matrix(.71874997 0 0 .71874997 -56.749998 -86.25)"
         id="path38" />
      <path
         d="m379 261.16h40"
         fill="none"
         stroke="#525866"
         transform="matrix(.71874997 0 0 .71874997 -56.749998 -86.25)"
         id="path39" />
      <path
         d="m481 296.92h40"
         fill="none"
         stroke="#525866"
         transform="matrix(.71874997 0 0 .71874997 -56.749998 -86.25)"
         id="path40" />
      <path
         d="m324 306.16h40"
         fill="none"
         stroke="#525866"
         transform="matrix(.71874997 0 0 .71874997 -56.749998 -86.25)"
         id="path41" />
      <path
         d="m321 216.74h40"
         fill="none"
         stroke="#2e86b2"
         transform="matrix(.71874997 0 0 .71874997 -56.749998 -86.25)"
         id="path42" />
      <path
         d="m471 206.76h40"
         fill="none"
         stroke="#2e86b2"
         transform="matrix(.71874997 0 0 .71874997 -56.749998 -86.25)"
         id="path43" />
    </g>
    <path
       d="m.5944977.147995c.00533039 0 .00999958-.00216675.01400757-.00650025l.03849793-.04148865c-.0293376-.03400675-.0649262-.06051127-.1067658-.07951355-.0418294-.0189921-.0924072-.02848816-.15173336-.02848816-.05134074 0-.0980123.00891622-.14001466.02674866-.04199219.01783244-.0778249.04283142-.10749817.07499695-.02966308.03216553-.05266317.07074483-.06900024.11573792-.01632691.04500327-.02449036.09450785-.02449036.14851378 0 .05399578.00849915.10349529.02549744.14849857.01699829.04500323.0409139.08366901.07174683.11599731.03083292.03233842.06774902.05742389.11074829.07525632.04300943.01783249.09051003.02674869.14250183.02674869.05100504 0 .0960083-.00816852.13500979-.02450562.03900141-.0163269.07333371-.03849287.10299681-.0664978l-.0319977-.04449467c-.00200394-.0033366-.0045878-.00608822-.00775143-.008255-.00316367-.00216671-.00741578-.0032501-.01275637-.0032501-.0060018 0-.0133362.0032501-.0220032.00975038-.0086568.00650022-.019989.01374812-.03399654.02174378-.01399737.00800574-.03149926.01525874-.05250551.02175903-.02099609.00650021-.04682412.00975031-.07748415.00975031-.03700764 0-.07084653-.00641883-.1015167-.01925654-.03066-.01282757-.05707296-.03140766-.0792389-.05574036s-.03941853-.0540009-.05175781-.08900453c-.0123291-.03500367-.01849365-.07450357-.01849365-.11849977 0-.04466755.00641376-.08450315.01924133-.11950682.01283772-.03499349.03033955-.0645752.05250549-.08874512s.04832969-.04258728.07849122-.05525208c.03017172-.01266479.0627594-.01899719.09776306-.01899719.02133179 0 .04057822.00124613.05773926.0037384.01717123.00250244.03300476.00641886.0475006.01174927.01450607.00534058.0280101.01209513.0405121.02026367s.0249176.0179189.0372467.0292511c.00566609.00499471.0113322.00749207.0169983.00749207z"
       fill="#333"
       transform="matrix(14.374999 0 0 -14.374999 404.3618 17.249993)"
       id="path44"
       style="fill:#666666;fill-opacity:1" />
    <use
       fill="#333"
       transform="matrix(14.374999 0 0 -14.374999 413.8205 17.249993)"
       xlink:href="#d"
       id="use44"
       style="fill:#666666;fill-opacity:1" />
    <use
       fill="#333"
       transform="matrix(14.374999 0 0 -14.374999 421.97117 17.249993)"
       xlink:href="#c"
       id="use45"
       style="fill:#666666;fill-opacity:1" />
    <path
       d="m.5404968 0h-.08898922v.43200685h-.2610016v-.30400087c0-.02134195.00516256-.03718058.01548767-.04751587.01033529-.01032511.02367147-.01548767.04000855-.01548767.0093282 0 .01741029.00124613.0242462.00373841.00683596.00250244.01275127.00525411.01774599.008255.00500489.00300089.00925699.00575256.01275635.00825501.00349936.00250244.00658164.00375366.00924683.00375366.00466919 0 .00883483-.00283305.01249693-.00849915l.02600099-.04251098c-.01532999-.01433309-.03382873-.02558391-.05549621-.03375245-.02166748-.00815836-.04400128-.01223755-.06700135-.01223755-.03999837 0-.07074993.01116435-.09225464.03349305-.02149455.02233887-.03224182.05450439-.03224182.09649658v.31001283h-.06100464c-.0053304 0-.00983175.00158181-.01350403.00474548-.00366211.00316366-.00549317.00808206-.00549317.01475525v.03549192l.08300782.0110016.02049255.15600588c.0009969.00499469.00324504.00907392.00674439.01223752.00349934.00317386.00808207.00476077.01374817.00476077h.04501342v-.17449952h.34999082zm.0220032.66900637c0-.00866699-.0017497-.01675417-.005249-.02426147-.00349933-.00749713-.00816852-.0140788-.0140076-.0197449-.00582882-.0056661-.0125783-.0101674-.0202484-.013504-.0076701-.00332642-.0158386-.00498963-.02450561-.00498963-.00866699 0-.01674905.00166321-.02424622.00498963-.00749717.0033366-.01407877.0078379-.01974487.013504-.00566611.0056661-.01016745.01224777-.01350403.0197449-.00333658.0075073-.00500488.01559448-.00500488.02426147s.0016683.01691693.00500488.02474973.00783792.0146637.01350403.02049258c.0056661.00583902.0122477.01042172.01974487.01374812.00749717.00333666.01557923.0050049.02424622.0050049.00866701 0 .01683551-.00166824.02450561-.0050049.0076701-.0033264.01441958-.0079091.0202484-.01374812.00583908-.00582888.01050827-.01265978.0140076-.02049258.0034993-.0078328.005249-.01608274.005249-.02474973z"
       fill="#333"
       transform="matrix(14.374999 0 0 -14.374999 429.89179 17.249993)"
       id="path45"
       style="fill:#666666;fill-opacity:1" />
    <use
       fill="#333"
       transform="matrix(14.374999 0 0 -14.374999 438.7468 17.249993)"
       xlink:href="#j"
       id="use46"
       style="fill:#666666;fill-opacity:1" />
    <use
       fill="#333"
       transform="matrix(14.374999 0 0 -14.374999 446.22178 17.249993)"
       xlink:href="#f"
       id="use47"
       style="fill:#666666;fill-opacity:1" />
    <path
       d="m590 180h120"
       fill="none"
       stroke="#ee9d96"
       stroke-miterlimit="10"
       stroke-width="8"
       transform="matrix(.71874997 0 0 .71874997 -56.749998 -86.25)"
       id="path47" />
    <path
       d="m590 210h80"
       fill="none"
       stroke="#525866"
       stroke-miterlimit="10"
       stroke-width="8"
       transform="matrix(.71874997 0 0 .71874997 -56.749998 -86.25)"
       id="path48" />
    <path
       d="m680 200h90"
       fill="none"
       stroke="#525866"
       stroke-miterlimit="10"
       stroke-width="8"
       transform="matrix(.71874997 0 0 .71874997 -56.749998 -86.25)"
       id="path49" />
    <path
       d="m680 220h80"
       fill="none"
       stroke="#2e86b2"
       stroke-miterlimit="10"
       stroke-width="8"
       transform="matrix(.71874997 0 0 .71874997 -56.749998 -86.25)"
       id="path50" />
    <path
       d="m730 242.5h20"
       fill="none"
       stroke="#525866"
       stroke-miterlimit="10"
       stroke-width="8"
       transform="matrix(.71874997 0 0 .71874997 -56.749998 -86.25)"
       id="path51" />
    <path
       d="m600 242.5h130"
       fill="none"
       stroke="#ee9d96"
       stroke-miterlimit="10"
       stroke-width="8"
       transform="matrix(.71874997 0 0 .71874997 -56.749998 -86.25)"
       id="path52" />
    <path
       d="m590 270h80"
       fill="none"
       stroke="#2e86b2"
       stroke-miterlimit="10"
       stroke-width="8"
       transform="matrix(.71874997 0 0 .71874997 -56.749998 -86.25)"
       id="path53" />
    <path
       d="m580 270h10"
       fill="none"
       stroke="#525866"
       stroke-miterlimit="10"
       stroke-width="8"
       transform="matrix(.71874997 0 0 .71874997 -56.749998 -86.25)"
       id="path54" />
    <path
       d="m660 290h80"
       fill="none"
       stroke="#2e86b2"
       stroke-miterlimit="10"
       stroke-width="8"
       transform="matrix(.71874997 0 0 .71874997 -56.749998 -86.25)"
       id="path55" />
    <path
       d="m740 290h20"
       fill="none"
       stroke="#ee9d96"
       stroke-miterlimit="10"
       stroke-width="8"
       transform="matrix(.71874997 0 0 .71874997 -56.749998 -86.25)"
       id="path56" />
    <path
       d="m700 269.71 70 .29"
       fill="none"
       stroke="#ee9d96"
       stroke-miterlimit="10"
       stroke-width="8"
       transform="matrix(.71874997 0 0 .71874997 -56.749998 -86.25)"
       id="path57" />
    <use
       fill="#333"
       transform="matrix(14.374999 0 0 -14.374999 583.892 17.249993)"
       xlink:href="#k"
       id="use57"
       style="fill:#666666;fill-opacity:1" />
    <use
       fill="#333"
       transform="matrix(14.374999 0 0 -14.374999 593.0345 17.249993)"
       xlink:href="#g"
       id="use58"
       style="fill:#666666;fill-opacity:1" />
    <use
       fill="#333"
       transform="matrix(14.374999 0 0 -14.374999 596.4845 17.249993)"
       xlink:href="#c"
       id="use59"
       style="fill:#666666;fill-opacity:1" />
    <use
       fill="#333"
       transform="matrix(14.374999 0 0 -14.374999 604.50576 17.249993)"
       xlink:href="#f"
       id="use60"
       style="fill:#666666;fill-opacity:1" />
    <use
       fill="#ee9d96"
       transform="matrix(10.062499 0 0 -10.062499 524.7973 50.312486)"
       xlink:href="#k"
       id="use61" />
    <use
       fill="#ee9d96"
       transform="matrix(10.062499 0 0 -10.062499 531.197 50.312486)"
       xlink:href="#g"
       id="use62" />
    <use
       fill="#ee9d96"
       transform="matrix(10.062499 0 0 -10.062499 533.612 50.312486)"
       xlink:href="#c"
       id="use63" />
    <path
       d="m.5090027.06799317v-.06799317h-.3840027v.06799317h.15350343v.48851013c0 .01466878.00049844.0295003.00149536.0444946l-.12750245-.10949704c-.0043335-.0036621-.00866699-.00591026-.01300049-.00674438-.00433349-.00083414-.00833638-.00092062-.01200866-.0002594-.00366212.00067139-.007075.002004-.01023865.0039978-.00316366.002004-.00557963.00417075-.00724793.00650025l-.02799988.03849794.21350097.18450923h.07249453v-.65000913z"
       fill="#ee9d96"
       transform="matrix(10.062499 0 0 -10.062499 541.80288 50.312486)"
       id="path63" />
    <path
       d="M 907.8 161 A 30 30 0 0 1 929 182.2"
       fill="none"
       stroke="#ee9d96"
       stroke-miterlimit="10"
       stroke-width="8"
       transform="matrix(.71874997 0 0 .71874997 -56.749998 -86.25)"
       id="path64" />
    <path
       d="M 878.8 168.8 A 30 30 0 0 1 892.2 161"
       fill="none"
       stroke="#525866"
       stroke-miterlimit="10"
       stroke-width="8"
       transform="matrix(.71874997 0 0 .71874997 -56.749998 -86.25)"
       id="path65" />
    <path
       d="M 929 197.8 A 30 30 0 0 1 892.2 219"
       fill="none"
       stroke="#ee9d96"
       stroke-miterlimit="10"
       stroke-width="8"
       transform="matrix(.71874997 0 0 .71874997 -56.749998 -86.25)"
       id="path66" />
    <path
       d="M 878.8 211.2 A 30 30 0 0 1 871 182.2"
       fill="none"
       stroke="#ee9d96"
       stroke-miterlimit="10"
       stroke-width="8"
       transform="matrix(.71874997 0 0 .71874997 -56.749998 -86.25)"
       id="path67" />
    <use
       fill="#2e86b2"
       transform="matrix(10.062499 0 0 -10.062499 524.7973 89.843738)"
       xlink:href="#k"
       id="use67" />
    <use
       fill="#2e86b2"
       transform="matrix(10.062499 0 0 -10.062499 531.197 89.843738)"
       xlink:href="#g"
       id="use68" />
    <use
       fill="#2e86b2"
       transform="matrix(10.062499 0 0 -10.062499 533.612 89.843738)"
       xlink:href="#c"
       id="use69" />
    <path
       d="m.49349977.08450318c.00966389 0 .01732893-.00283305.02299501-.00849915.00566602-.0056661.00849912-.01300049.00849912-.02200317v-.05400086h-.47799683v.03050232c0 .00632731.0013326.01282247.0039978.01948547.00266521.00667318.00683594.01284282.01251221.01850892l.2294922.23049927c.01900229.01933798.03633627.03792319.05200195.05575562.01566567.01783243.0289968.03574624.03999327.05374145.0110067.01800535.01950585.03625488.02549745.05474854.0060018.01850381.00900269.03825881.00900269.05926511 0 .0209961-.00333151.0394084-.00999451.05523686-.00666299.01583862-.01574707.02892554-.0272522.03926084-.01149496.01033529-.02508035.01808168-.04075623.02323916-.01566567.00516764-.03249612.00775144-.05049132.00775144-.01833091 0-.03516642-.0026652-.0505066-.0079956-.01533-.0053304-.02891033-.01274614-.04074097-.0222473-.01183064-.0095012-.02174886-.020752-.02975464-.03375244-.0079956-.01300049-.0136617-.02733356-.01699829-.04299927-.0039978-.01166791-.00941468-.01941939-.01625061-.02325439-.00683594-.00383503-.01641846-.0049184-.02874756-.00325013l-.04650879.00801083c.00466919.032664.01375326.0615794.0272522.0867462.01349894.02516686.03049723.0462494.05099487.0632477.02050781.0169983.04392498.0299123.07025147.0387421.02633667.0088399.05484009.01325989.08551024.01325989.03033449 0 .05866497-.00450139.08499147-.01350403.02633667-.00900269.04916892-.02208966.06849671-.03926086.01933798-.0171611.03450522-.0380758.04550171-.06274414.01100667-.02465826.01651001-.05265809.01651001-.08399966 0-.0266622-.0040029-.05141195-.01200867-.07424926-.00799563-.02282715-.01882935-.04457604-.03250123-.06524658-.0136617-.0206604-.02940877-.04082743-.0472412-.0605011-.01783243-.01966348-.03674826-.03949486-.05674744-.05949402l-.18901063-.19300843c.01333619.00367228.02683513.00659179.04049683.00875854.01367188.00216675.02684021.00325013.03950501.00325013z"
       fill="#2e86b2"
       transform="matrix(10.062499 0 0 -10.062499 541.80288 89.843738)"
       id="path69" />
    <path
       d="M 907.8 241 A 30 30 0 0 1 929 277.8"
       fill="none"
       stroke="#2e86b2"
       stroke-miterlimit="10"
       stroke-width="8"
       transform="matrix(.71874997 0 0 .71874997 -56.749998 -86.25)"
       id="path70" />
    <path
       d="M 921.2 291.2 A 30 30 0 0 1 878.8 291.2"
       fill="none"
       stroke="#2e86b2"
       stroke-miterlimit="10"
       stroke-width="8"
       transform="matrix(.71874997 0 0 .71874997 -56.749998 -86.25)"
       id="path71" />
    <path
       d="M 871 277.8 A 30 30 0 0 1 871 262.2"
       fill="none"
       stroke="#525866"
       stroke-miterlimit="10"
       stroke-width="8"
       transform="matrix(.71874997 0 0 .71874997 -56.749998 -86.25)"
       id="path72" />
    <path
       d="M 871 262.2 A 30 30 0 0 1 878.8 248.8"
       fill="none"
       stroke="#2e86b2"
       stroke-miterlimit="10"
       stroke-width="8"
       transform="matrix(.71874997 0 0 .71874997 -56.749998 -86.25)"
       id="path73" />
    <path
       d="M 878.8 248.8 A 30 30 0 0 1 892.2 241"
       fill="none"
       stroke="#ee9d96"
       stroke-miterlimit="10"
       stroke-width="8"
       transform="matrix(.71874997 0 0 .71874997 -56.749998 -86.25)"
       id="path74" />
    <path
       d="M 871.8 339.8 A 30 30 0 0 1 928.2 339.8"
       fill="none"
       stroke="#525866"
       stroke-miterlimit="10"
       stroke-width="8"
       transform="matrix(.71874997 0 0 .71874997 -56.749998 -86.25)"
       id="path75" />
    <path
       d="M 928.2 360.2 A 30 30 0 0 1 871.8 360.2"
       fill="none"
       stroke="#525866"
       stroke-miterlimit="10"
       stroke-width="8"
       transform="matrix(.71874997 0 0 .71874997 -56.749998 -86.25)"
       id="path76" />
    <use
       fill="#525866"
       transform="matrix(10.062499 0 0 -10.062499 524.7973 126.499988)"
       xlink:href="#k"
       id="use76" />
    <use
       fill="#525866"
       transform="matrix(10.062499 0 0 -10.062499 531.197 126.499988)"
       xlink:href="#g"
       id="use77" />
    <use
       fill="#525866"
       transform="matrix(10.062499 0 0 -10.062499 533.612 126.499988)"
       xlink:href="#c"
       id="use78" />
    <path
       d="m.06500244.5225067c.00466919.032664.01366679.0615794.0269928.0867462.01333618.02516686.03025309.0462494.05075073.0632477.02049763.0169983.04399617.0299123.07049561.0387421.0265096.0088399.0550944.01325989.0857544.01325989.03033447 0 .05833435-.0043335.08399962-.01300049.0256653-.008667.04774986-.0210012.06625368-.0370026.01850381-.0160014.0329183-.0353343.04324341-.05799862.01033528-.02266438.01550291-.04783128.01550291-.07550049 0-.02266439-.0029195-.04291282-.00875853-.06074525-.00582887-.01783244-.01416017-.03341675-.0249939-.04675294-.01083374-.01333617-.02391561-.02467345-.0392456-.03401183-.01532999-.00932822-.03249613-.0169932-.05149841-.022995.04667153-.01199341.08175659-.03257751.10525512-.06175232.02349852-.02916465.03524782-.0655772.03524782-.10923768 0-.03299968-.00625104-.06266784-.0187531-.08900451-.01250201-.02633667-.02958676-.04875692-.05125424-.06726075-.02166748-.01849365-.04691568-.03265889-.07574463-.04249573-.02882895-.00982666-.05974325-.01473999-.09274293-.01473999-.03800456 0-.07050578.00474549-.09750366.01423645-.02699788.00950114-.04983012.02258301-.0684967.03924561-.01866659.01667277-.03400167.03642782-.04600525.05926514-.01200358.02283733-.02217102.04758708-.03050232.07424927l.03849792.01600647c.0099996.00433349.01974997.00549824.0292511.00349426.00950114-.00200399.01641846-.00750224.02075196-.01649475.00433349-.00933838.00975036-.02050781.01625061-.0335083.00650024-.01300049.01541646-.02550253.02674865-.03750611.0113322-.01199341.02574666-.02216085.04324341-.03050232.01750691-.0083313.03975932-.01249694.06675721-.01249694.02500406 0 .04692077.00408426.06575012.0122528s.03449503.01875305.04699705.03175354c.01250207.01300049.02191674.02750142.02824404.04350281.0063375.01600139.00950623.03183492.00950623.04750061 0 .01932781-.00250244.03699239-.00750733.05299377-.00499474.01600139-.014328.02983604-.02799987.0415039-.01366172.0116679-.03240967.02083336-.0562439.02749636-.02383423.00667319-.05441794.01000974-.0917511.01000974v.06449893c.03067017.00032553.05675253.00365701.07824707.0099945.02150473.0063375.03900656.01500447.05250549.02600097.01349894.0109965.02333067.02415977.02949524.03948975.00617472.01534018.00926209.03234355.00926209.05101015 0 .02067059-.00325012.0386708-.00975037.05400086-.00650024.01533001-.01542154.02799481-.02676391.03799434-.01133219.0099996-.02474978.0174968-.04025269.0224915-.01549279.00500488-.03223672.0075073-.05023193.0075073-.01800537 0-.03475952-.0026652-.05026246-.0079956-.01549275-.0053304-.02915955-.01274614-.04100037-.0222473-.01183064-.0095012-.02174885-.020752-.02975464-.03375244-.0079956-.01300049-.01365661-.02733356-.01698303-.04299927-.00433349-.01166791-.00975036-.01941939-.01625061-.02325439-.00650025-.00383503-.01592001-.0049184-.02825928-.00325013z"
       fill="#525866"
       transform="matrix(10.062499 0 0 -10.062499 541.80288 126.499988)"
       id="path78" />
    <path
       d="m240 360v20h120v-17.65"
       fill="none"
       stroke="#333"
       stroke-miterlimit="10"
       stroke-width="3"
       transform="matrix(.71874997 0 0 .71874997 -56.390626 -85.890628)"
       id="path79"
       style="stroke:#666666;stroke-opacity:1" />
    <path
       d="m360 353.35 4.5 9h-9z"
       fill="#333"
       transform="matrix(.71874997 0 0 .71874997 -56.390626 -85.890628)"
       id="path80"
       style="stroke:#666666;stroke-opacity:1" />
    <path
       d="m360 353.35 4.5 9h-9z"
       fill="none"
       stroke="#333"
       stroke-miterlimit="10"
       stroke-width="3"
       transform="matrix(.71874997 0 0 .71874997 -56.390626 -85.890628)"
       id="path81"
       style="stroke:#666666;stroke-opacity:1;fill:#666666;fill-opacity:1" />
    <path
       d="m.45799256.60450747c-.00299072-.00500488-.00624086-.00875857-.00975036-.01126099-.00349936-.00250248-.00774637-.00375368-.0127411-.00375368-.0056661 0-.0123342.00283309-.02000426.00849917-.00765994.00567623-.01724244.0119273-.02874756.01875303-.01149498.00683596-.02532959.01308699-.04150391.01875307-.01616417.00566603-.03574627.00849913-.05874634.00849913-.02166748 0-.04075115-.0029195-.05725098-.00875853-.01649983-.00582887-.03033447-.0137431-.04150391-.02374267-.01115925-.0099996-.01957194-.02174884-.02523804-.03524781-.00566609-.01349899-.00849914-.02808123-.00849914-.04374699 0-.0199992.00491333-.03658545.01473999-.0497589.00983684-.01316322.02283733-.02441404.03900147-.03375242.01616413-.00932822.03449504-.01741028.05499268-.02424622.0205078-.00682577.041509-.01390586.06300354-.02124023.02150473-.00733438.04250589-.01558433.06300354-.02474976s.03882852-.02075197.05499267-.03475952c.01617432-.01399741.02917481-.03116355.03900145-.05149841.00983684-.02033487.01475527-.04533387.01475527-.07499696 0-.03133138-.00533548-.06075032-.01600647-.08825683-.0106608-.02749634-.02624002-.05141195-.04673767-.07174683s-.04566446-.03633627-.07550049-.04800415c-.02983604-.01165772-.06375124-.01748658-.10174561-.01748658-.04667156 0-.0890096.00841268-.12701416.02523804-.03799439.01683553-.07049052.03958639-.09748841.06825257l.02799988.04600525c.0026652.00366211.00591532.00674438.00975037.00924682.00383504.00250244.00808207.00375366.01274109.00375366.00433349 0 .00925191-.00174967.01475524-.00524902.00550334-.00349934.01175436-.00791931.01875306-.01325989.00699869-.0053304.0149943-.01116434.02398681-.01750183.00900269-.00632731.01925151-.01216125.03074646-.01750183.01150513-.00533041.02459209-.00974528.03926087-.01324463s.03116862-.00524902.04949952-.00524902c.02300009 0 .04349771.00316874.06149292.00950622.01800537.00633749.03325906.0152537.04576111.02674866.01250204.01150513.02208456.0252533.02874755.04124451.006663.01600139.00999451.03383891.00999451.05351257 0 .02165731-.00491845.03940328-.01475525.05323792-.00982666.01383461-.0227407.02541605-.03874206.03474427-.01600138.00933838-.03433738.01725769-.05500794.02375793-.0206604.00650025-.0416565.01316834-.06298829.02000427-.02133178.00683594-.04233296.01475014-.06300354.02374268-.0206604.00900269-.03899128.02067056-.05499267.03500366s-.0289205.0322469-.03875733.05374146c-.00982666.02150473-.01473999.0480906-.01473999.0797577 0 .02533974.00491333.04984024.01473999.07350154.00983683.0236715.02416992.0446727.04299927.06300359.01883952.01833087.04200745.03299457.06950378.04399109.02749634.01100662.05908204.01651001.09475708.01651001.03999839 0 .07641093-.00633749.10923768-.01901249.03283692-.0126648.06175742-.03099563.08676148-.05499264z"
       fill="#333"
       transform="matrix(14.374999 0 0 -14.374999 122.454578 204.84372)"
       id="path82"
       style="fill:#666666;fill-opacity:1" />
    <use
       fill="#333"
       transform="matrix(14.374999 0 0 -14.374999 130.20987 204.84372)"
       xlink:href="#b"
       id="use82"
       style="fill:#666666;fill-opacity:1" />
    <path
       d="m.40049745.38650514c-.01600138.02133176-.03383385.03658041-.05349732.04574585-.01966348.00916541-.04149883.01374817-.06550598.01374817-.04699708 0-.08316549-.01683556-.10850526-.0505066-.02532959-.03366089-.03799439-.08165996-.03799439-.14399719 0-.03299969.00283306-.06124879.00849915-.08474732.0056661-.02349854.0139974-.04283142.0249939-.05799866.01100667-.01516724.0245107-.02625021.04051209-.0332489.01600138-.0069987.03416951-.01049805.0545044-.01049805.02932739 0 .05490622.006663.07673645.01998902.02184041.01333618.04192605.03217061.06025696.05650329zm.08900451.11999513v-.6779938h-.08900451v.24699402c-.0209961-.02466838-.04516092-.04458618-.07249451-.05975342-.02733359-.01516724-.0585022-.02275085-.09350587-.02275085-.02900187 0-.05533854.00558471-.07901001.01675415-.0236613.01116943-.04382324.02758789-.06048584.04925537s-.02949524.04866537-.03849792.08099365c-.00900269.03233846-.01350403.06950379-.01350403.11149598 0 .03733316.0049998.07208252.01499939.10424803.00999959.0321757.02433268.06009423.04299927.0837555.01866658.02367149.0415802.04225669.06874084.05575563.02717082.01349897.0577596.02024837.09176637.02024837.03299966 0 .06099954-.0058339.08399963-.0175018.02300009-.01166787.04332987-.02799987.06098938-.04899596l.00601195.03900146c.00332643.0123291.01132203.01849367.02398683.01849367z"
       fill="#333"
       transform="matrix(14.374999 0 0 -14.374999 137.79987 204.84372)"
       id="path83"
       style="fill:#666666;fill-opacity:1" />
    <path
       d="m.4869995.50650027v-.50650027h-.05299375c-.01267496 0-.02067566.00616455-.02400208.01849365l-.00700378.0545044c-.02200319-.02433268-.04667154-.0439148-.07400513-.05874634s-.05866496-.02224732-.09399415-.02224732c-.02766926 0-.05208842.00458273-.07325744.01374817-.02115887.00916545-.03890483.02207947-.05323792.03874207-.01433309.01667277-.02508545.03683981-.03225708.0605011-.00716146.02367146-.01074219.04984029-.01074219.07850647v.32299807h.08898926v-.32299807c0-.03833008.00874836-.06799825.02624512-.08900452.01750691-.02099609.04426066-.03149414.08026124-.03149414.02633667 0 .05091858.00624593.0737457.01873779.02283734.01250204.0439199.02975464.0632477.05175782v.37300112z"
       fill="#333"
       transform="matrix(14.374999 0 0 -14.374999 145.84989 204.84372)"
       id="path84"
       style="fill:#666666;fill-opacity:1" />
    <use
       fill="#333"
       transform="matrix(14.374999 0 0 -14.374999 153.86394 204.84372)"
       xlink:href="#b"
       id="use84"
       style="fill:#666666;fill-opacity:1" />
    <use
       fill="#333"
       transform="matrix(14.374999 0 0 -14.374999 161.45394 204.84372)"
       xlink:href="#c"
       id="use85"
       style="fill:#666666;fill-opacity:1" />
    <path
       d="m.42300416.4165039c-.00266519-.00367226-.00533548-.0065104-.00801086-.0085144-.0026652-.0019938-.00632731-.00299071-.01098633-.00299071-.00500488 0-.01050821.00208029-.01651001.00624084-.0060018.00417075-.01341757.00875345-.02224732.01374817-.00882974.00500489-.01966348.00959268-.03250124.01376343-.01282752.00417075-.0285746.0062561-.0472412.0062561-.02500405 0-.04700724-.00441995-.06600952-.01325988-.01900228-.00882975-.03492228-.02158105-.04776001-.03825379-.01282756-.0166626-.02249145-.03682962-.0289917-.0605011-.00650024-.02366128-.00975037-.05016073-.00975037-.07949829 0-.03065999.00349935-.05790711.01049805-.08174134.00700887-.02383423.01692708-.0438385.02975464-.06001282.01283773-.01616414.02833557-.02849833.04649353-.03700256.01816814-.00849406.03858948-.01274109.06126405-.01274109.02166748 0 .03949991.00258383.05349731.00775147.01399741.00516764.02557882.01091512.03474427.01724243.00916543.00633748.01683044.01209005.02299499.01725769.00617471.00516764.01226296.00775146.01826476.00775146.00732423 0 .01299034-.00283304.0169983-.00849914l.0249939-.03250122c-.0109965-.0136617-.02349854-.02532959-.0375061-.03500366-.01399741-.00966391-.02907816-.01774598-.04524231-.02424622-.01616416-.00650025-.03308106-.01125082-.05075074-.01425171-.01766967-.0030009-.03566995-.00450134-.05400085-.00450134-.03166708 0-.06108602.00583394-.08825684.01750183-.02716065.01166788-.05074056.0285848-.07073975.05075073-.01999918.02216593-.03566488.04941305-.04699707.08174133-.0113322.03233846-.01699829.06917318-.01699829.11050416 0 .03766886.00524902.07250467.01574707.10450743.01049804.0320028.02582804.05958559.04598999.08274843.02017212.02316284.04500835.04124451.07450867.054245.02950032.01300047.06341552.01950074.10174561.01950074.03566489 0 .06707764-.00575257.09423828-.0172577.02717081-.01149497.05125937-.02774048.07226563-.04873657z"
       fill="#333"
       transform="matrix(14.374999 0 0 -14.374999 169.47519 204.84372)"
       id="path85"
       style="fill:#666666;fill-opacity:1" />
    <use
       fill="#333"
       transform="matrix(14.374999 0 0 -14.374999 176.33924 204.84372)"
       xlink:href="#g"
       id="use86"
       style="fill:#666666;fill-opacity:1" />
    <use
       fill="#333"
       transform="matrix(14.374999 0 0 -14.374999 179.78923 204.84372)"
       xlink:href="#c"
       id="use87"
       style="fill:#666666;fill-opacity:1" />
    <use
       fill="#333"
       transform="matrix(14.374999 0 0 -14.374999 187.81046 204.84372)"
       xlink:href="#j"
       id="use88"
       style="fill:#666666;fill-opacity:1" />
    <path
       d="m480 360v20h140v-17.65"
       fill="none"
       stroke="#333"
       stroke-miterlimit="10"
       stroke-width="3"
       transform="matrix(.71874997 0 0 .71874997 -56.390626 -85.890628)"
       id="path88"
       style="stroke:#666666;stroke-opacity:1" />
    <path
       d="m620 353.35 4.5 9h-9z"
       fill="#333"
       transform="matrix(.71874997 0 0 .71874997 -56.390626 -85.890628)"
       id="path89"
       style="stroke:#666666;stroke-opacity:1" />
    <path
       d="m620 353.35 4.5 9h-9z"
       fill="none"
       stroke="#333"
       stroke-miterlimit="10"
       stroke-width="3"
       transform="matrix(.71874997 0 0 .71874997 -56.390626 -85.890628)"
       id="path90"
       style="stroke:#666666;stroke-opacity:1;fill:#666666;fill-opacity:1" />
    <path
       d="m.47200013.26600648-.11250305.29148862c-.00332642.008667-.00682578.018748-.01049805.03024296-.00366213.01150513-.00716146.02375794-.01049804.03675842-.00699869-.02699788-.01416526-.04949448-.02149964-.06748962l-.11250306-.29100038zm.20199587-.26600648h-.074997c-.00866694 0-.0156657.00216675-.0209961.00650024-.00533033.0043335-.0093333.00983175-.01200861.01649476l-.06700136.17300415h-.32148743l-.06700135-.17300415c-.00200399-.00599162-.00583903-.01132203-.01150513-.01599122-.00566609-.00466919-.01266479-.00700378-.02099609-.00700378h-.07499695l.28649902.71650698h.09799196z"
       fill="#333"
       transform="matrix(14.374999 0 0 -14.374999 308.33006 204.84372)"
       id="path91"
       style="fill:#666666;fill-opacity:1" />
    <use
       fill="#333"
       transform="matrix(14.374999 0 0 -14.374999 318.06193 204.84372)"
       xlink:href="#f"
       id="use91"
       style="fill:#666666;fill-opacity:1" />
    <use
       fill="#333"
       transform="matrix(14.374999 0 0 -14.374999 324.28627 204.84372)"
       xlink:href="#f"
       id="use92"
       style="fill:#666666;fill-opacity:1" />
    <use
       fill="#333"
       transform="matrix(14.374999 0 0 -14.374999 330.51063 204.84372)"
       xlink:href="#b"
       id="use93"
       style="fill:#666666;fill-opacity:1" />
    <use
       fill="#333"
       transform="matrix(14.374999 0 0 -14.374999 338.10063 204.84372)"
       xlink:href="#e"
       id="use94"
       style="fill:#666666;fill-opacity:1" />
    <path
       d="m.16000366.12199402c.01632691-.021993.03424073-.03749084.05374146-.04649353s.04091898-.01350403.06425477-.01350403c.04766845 0 .08416748.01683045.10949707.05049133.02533974.03367107.03800964.08384197.03800964.15051271 0 .06200155-.01125082.1075846-.03375244.13674927-.02250162.02916463-.05458578.04374693-.09625246.04374693-.02900184 0-.05425516-.0066681-.07575988-.02000426-.02149455-.01332604-.04140727-.03215536-.05973816-.05648804zm0 .31150818c.02133179.02466837.04541524.04433189.07225037.05899049.02683512.01466877.05774943.02200318.09274293.02200318.02967324 0 .0564219-.00566607.08024597-.0169983.02383423-.01133219.04408264-.02775064.06074524-.04925537.01667276-.02149454.02942403-.04757691.0382538-.07824707.0088399-.03066003.01325989-.06516013.01325989-.10350037 0-.04099529-.00499986-.07832846-.01499939-.11199952-.00999962-.03366089-.02441918-.06240845-.04325869-.08624268-.01882934-.02383422-.04174295-.04233805-.06874084-.05551147-.02699789-.01316325-.05733237-.01974487-.09100344-.01974487-.03333534 0-.0614217.00625101-.08425902.01875305-.02282715.01250203-.04273987.03025309-.05973816.05325317l-.00450134-.04600525c-.00266521-.01266479-.0103302-.01899719-.022995-.01899719h-.05751037v.736496h.08950805z"
       fill="#333"
       transform="matrix(14.374999 0 0 -14.374999 349.924 204.84372)"
       id="path94"
       style="fill:#666666;fill-opacity:1" />
    <use
       fill="#333"
       transform="matrix(14.374999 0 0 -14.374999 357.97404 204.84372)"
       xlink:href="#i"
       id="use95"
       style="fill:#666666;fill-opacity:1" />
    <path
       d="m.5075073.50650027-.2825012-.65600589c-.0030009-.00666301-.00675456-.01199341-.01126098-.01599121-.00449626-.0039978-.01141357-.0059967-.02075195-.0059967h-.06599427l.09249878.20098877-.20899963.47700503h.07699585c.00767008 0 .01375326-.00191757.01824951-.00575257.00450643-.00383506.00759379-.00808207.00926208-.0127411l.13549806-.31900025c.00533041-.01400757.00983175-.02867635.01350403-.04400635.00465902.0156657.00965881.03049724.01499939.04449463l.13150023.31851197c.0019938.0053304.0054067.00974527.01023866.0132446.00483194.00349937.01024881.00524907.01625061.00524907z"
       fill="#333"
       transform="matrix(14.374999 0 0 -14.374999 361.36656 204.84372)"
       id="path95"
       style="fill:#666666;fill-opacity:1" />
    <path
       d="m740 360v20h140v-17.65"
       fill="none"
       stroke="#333"
       stroke-miterlimit="10"
       stroke-width="3"
       transform="matrix(.71874997 0 0 .71874997 -56.390626 -85.890628)"
       id="path96"
       style="stroke:#666666;stroke-opacity:1" />
    <path
       d="m880 353.35 4.5 9h-9z"
       fill="#333"
       transform="matrix(.71874997 0 0 .71874997 -56.390626 -85.890628)"
       id="path97"
       style="stroke:#666666;stroke-opacity:1" />
    <path
       d="m880 353.35 4.5 9h-9z"
       fill="none"
       stroke="#333"
       stroke-miterlimit="10"
       stroke-width="3"
       transform="matrix(.71874997 0 0 .71874997 -56.390626 -85.890628)"
       id="path98"
       style="stroke:#666666;stroke-opacity:1;fill:#666666;fill-opacity:1" />
    <use
       fill="#333"
       transform="matrix(14.374999 0 0 -14.374999 501.64009 204.84372)"
       xlink:href="#k"
       id="use98"
       style="fill:#666666;fill-opacity:1" />
    <use
       fill="#333"
       transform="matrix(14.374999 0 0 -14.374999 510.7826 204.84372)"
       xlink:href="#g"
       id="use99"
       style="fill:#666666;fill-opacity:1" />
    <use
       fill="#333"
       transform="matrix(14.374999 0 0 -14.374999 514.23257 204.84372)"
       xlink:href="#c"
       id="use100"
       style="fill:#666666;fill-opacity:1" />
    <use
       fill="#333"
       transform="matrix(14.374999 0 0 -14.374999 522.2538 204.84372)"
       xlink:href="#c"
       id="use101"
       style="fill:#666666;fill-opacity:1" />
    <use
       fill="#333"
       transform="matrix(14.374999 0 0 -14.374999 530.275 204.84372)"
       xlink:href="#g"
       id="use102"
       style="fill:#666666;fill-opacity:1" />
    <use
       fill="#333"
       transform="matrix(14.374999 0 0 -14.374999 533.72506 204.84372)"
       xlink:href="#c"
       id="use103"
       style="fill:#666666;fill-opacity:1" />
    <use
       fill="#333"
       transform="matrix(14.374999 0 0 -14.374999 541.7462 204.84372)"
       xlink:href="#j"
       id="use104"
       style="fill:#666666;fill-opacity:1" />
    <path
       d="m170 210c0 1.31005-.06421 2.61695-.19261 3.92069-.1284 1.30372-.3204 2.59804-.57599 3.8829-.25557 1.2849-.5735 2.55415-.9538 3.80779-.38027 1.25362-.82108 2.48561-1.32243 3.69592-.50133 1.21034-1.06077 2.39319-1.67833 3.54854-.61755 1.15536-1.29024 2.27768-2.01806 3.36694-.72782 1.08928-1.50727 2.14026-2.33837 3.15294-.83108 1.01268-1.70979 1.98219-2.63614 2.90852-.92634.92635-1.89584 1.80507-2.90852 2.63614-1.0127.8311-2.06367 1.61055-3.15294 2.33837-1.08925.72782-2.21156 1.40052-3.36694 2.01806-1.15535.61757-2.33818 1.17702-3.54852 1.67835-1.21033.50134-2.44231.94215-3.69596 1.32244s-2.5229.69822-3.80779.95379c-1.28486.25558-2.57917.44758-3.88291.576-1.30374.1284-2.61064.19261-3.92069.19261-1.31004 0-2.61694-.06421-3.920681-.19262-1.303749-.12841-2.598059-.32041-3.882939-.57599-1.28487-.25557-2.55413-.5735-3.80777-.95379s-2.485622-.82112-3.69596-1.32246c-1.21032-.50133-2.393162-1.06077-3.54852-1.67833-1.15536-.61755-2.277672-1.29024-3.36695-2.01806-1.08926-.72782-2.14023-1.50727-3.152901-2.33835-1.012689-.83109-1.982201-1.70981-2.908549-2.63616-.92634-.92633-1.805052-1.89584-2.63614-2.90854-.83109-1.01268-1.61055-2.06364-2.33838-3.15292-.72782-1.08926-1.40051-2.21158-2.018062-3.36694-.617548-1.15535-1.176998-2.3382-1.678338-3.54854-.50133-1.21031-.94214-2.4423-1.32243-3.69594-.380282-1.25362-.69822-2.52287-.953791-3.80777-.255579-1.28486-.447569-2.57918-.575969-3.8829-.12841-1.30374-.19262-2.61064-.19262-3.92069 0-1.31004.0642-2.61693.19261-3.92067.12841-1.30375.320409-2.59807.57598-3.88295.25558-1.28486.57351-2.55412.95379-3.80777.38029-1.25364.8211-2.48562 1.322438-3.69595.501332-1.21033 1.060782-2.39316 1.678332-3.54851.617559-1.15538 1.29025-2.27769 2.01807-3.36696.72783-1.08924 1.507288-2.14022 2.33837-3.15292.831088-1.01268 1.7098-1.98219 2.63614-2.90854.926348-.92634 1.89586-1.80505 2.908549-2.63615 1.012671-.83109 2.063641-1.61055 3.152901-2.33838 1.089278-.72782 2.21159-1.4005 3.36695-2.01805 1.155358-.61756 2.3382-1.177 3.54853-1.67835 1.21033-.50133 2.44231-.94212 3.69595-1.32242 1.25364-.38029 2.5229-.69822 3.80777-.95379 1.28488-.25557 2.57919-.44756 3.882939-.57596 1.303741-.12842 2.610641-.19263 3.920681-.19263 1.31005 0 2.61695.06421 3.92069.19263 1.30374.1284 2.59805.32039 3.88291.57596 1.28489.25557 2.55416.5735 3.8078.95379 1.25364.3803 2.48562.82109 3.69595 1.32242 1.21034.50135 2.39317 1.06079 3.54852 1.67835 1.15538.61755 2.27769 1.29023 3.36694 2.01805 1.08927.72783 2.14024 1.50729 3.15294 2.33838 1.01268.8311 1.98218 1.70981 2.90852 2.63615.92635.92635 1.80506 1.89586 2.63616 2.90854.83108 1.0127 1.61053 2.06368 2.33835 3.15292.72782 1.08927 1.40051 2.21158 2.01806 3.36696.61756 1.15535 1.177 2.33818 1.67833 3.54851.50135 1.21033.94216 2.44231 1.32245 3.69595.38028 1.25365.69821 2.52291.95378 3.80777.25559 1.28488.44759 2.5792.57599 3.88294.1284 1.30375.19261 2.61064.19261 3.92068z"
       fill="none"
       stroke="#2e86b2"
       stroke-width="3"
       transform="matrix(.71874997 0 0 .71874997 -56.390626 -85.890628)"
       id="path104" />
    <path
       d="m275 195c0 .81879-.04012 1.6356-.12035 2.45044-.08026.81484-.20029 1.62376-.36005 2.42679-.15973.80306-.35843 1.59633-.59613 2.37985s-.51321 1.55352-.82654 2.30997c-.31333.75647-.66296 1.49575-1.04893 2.21785-.38594.72209-.8064 1.42354-1.26131 2.10432-.45486.68081-.94201 1.33767-1.46142 1.97058-.51944.63294-1.06864 1.23888-1.64762 1.81785-.57895.57897-1.1849 1.12818-1.81781 1.64761-.63296.51942-1.28984 1.00658-1.97061 1.46144-.68078.45491-1.38223.87534-2.10433 1.2613-.72212.38599-1.4614.73565-2.21784 1.04896-.75646.31334-1.52643.58884-2.30997.82652-.78349.23769-1.57677.43639-2.37984.59612-.80305.15975-1.61199.27976-2.42682.36003-.81484.08024-1.63164.12037-2.45043.12037-.81877 0-1.63559-.04013-2.45042-.12039-.81484-.08026-1.62378-.20027-2.42684-.36002-.80304-.15972-1.59632-.35842-2.37986-.59611-.78353-.23769-1.55353-.5132-2.30999-.82654-.75645-.31332-1.49572-.66298-2.21783-1.04895-.72209-.38597-1.42354-.80639-2.10432-1.26129-.68079-.45486-1.33765-.94202-1.97057-1.46146-.63293-.51942-1.23889-1.06862-1.81786-1.64759-.57896-.57897-1.12815-1.18491-1.64758-1.81783s-1.00659-1.28978-1.46149-1.97058c-.45488-.68079-.87532-1.38224-1.26129-2.10433-.38597-.72211-.73562-1.46139-1.04896-2.21784-.31333-.75644-.58882-1.52643-.8265-2.30996-.23769-.78352-.4364-1.57682-.59614-2.37988-.15971-.80303-.27971-1.61195-.35996-2.42679-.08024-.81484-.12037-1.63165-.12039-2.45044.00002-.81877.04015-1.63559.12039-2.45042.08025-.81485.20025-1.62381.35996-2.42687.15974-.80302.35845-1.59631.59614-2.37985.23768-.78351.51317-1.5535.8265-2.30997.31334-.75643.66299-1.49571 1.04896-2.21781s.8064-1.42354 1.26128-2.10434c.45491-.68079.94207-1.33765 1.4615-1.97057s1.06862-1.23888 1.64758-1.81784c.57897-.57896 1.18493-1.12816 1.81784-1.64758.63294-.51945 1.2898-1.00661 1.97057-1.46151.6808-.45488 1.38225-.8753 2.10434-1.26127.72211-.38597 1.46138-.73563 2.21783-1.04897.75646-.31332 1.52646-.58883 2.31-.82652.78353-.23768 1.57681-.43638 2.37985-.59612.80306-.15972 1.612-.27972 2.42684-.35997.81483-.08026 1.63165-.12039 2.45042-.12039.81879 0 1.63559.04013 2.45041.12039.81484.08025 1.62377.20025 2.42681.35997.80307.15974 1.59636.35844 2.37987.59613.78354.23769 1.55351.51319 2.30997.82651.75644.31334 1.49572.663 2.21784 1.04897.7221.38597 1.42355.80639 2.10433 1.26127.68077.4549 1.33765.94206 1.97057 1.46151.63295.51942 1.2389 1.06862 1.81785 1.64758.57898.57896 1.12818 1.18492 1.64759 1.81784.51944.63292 1.00659 1.28978 1.46145 1.97055.45491.6808.87537 1.38225 1.26131 2.10434.38597.72212.7356 1.4614 1.04893 2.21783.31333.75647.58884 1.52646.82654 2.30999.2377.78354.4364 1.57682.59613 2.37985.15976.80305.27979 1.61201.36005 2.42685.08023.81483.12035 1.63165.12035 2.45042z"
       fill="none"
       stroke="#2e86b2"
       stroke-width="3"
       transform="matrix(.71874997 0 0 .71874997 -56.390626 -85.890628)"
       id="path105" />
    <path
       d="m209.99501 310.75c-.00001 1.36213-.13289 2.71116-.39865 4.04713-.26573 1.33597-.65924 2.63315-1.18049 3.8916-.52128 1.25845-1.16028 2.45397-1.91704 3.58657-.75678 1.13255-1.61675 2.18043-2.57991 3.14359-.96318.96317-2.01107 1.82311-3.14363 2.5799-1.13259.75674-2.3281 1.39578-3.58654 1.91705-1.25845.52126-2.55566.9148-3.89161 1.18054-1.33596.26572-2.685.39859-4.04714.39862-1.36213-.00003-2.7112-.1329-4.04715-.39862-1.33597-.26574-2.63318-.65928-3.89163-1.18054-1.25844-.52127-2.45396-1.16031-3.58655-1.91705-1.13255-.75679-2.18042-1.61673-3.1436-2.5799-.96318-.96316-1.82315-2.01104-2.57991-3.14359-.75677-1.1326-1.3958-2.32812-1.91707-3.58657-.52125-1.25845-.91476-2.55563-1.18049-3.8916s-.39861-2.685-.3986-4.04713c-.00001-1.36214.13287-2.7112.3986-4.04717s.65924-2.63315 1.18049-3.8916c.52127-1.25845 1.1603-2.45395 1.91706-3.58655.75675-1.1326 1.61674-2.18045 2.57992-3.14362.96318-.96319 2.01105-1.82316 3.14362-2.57989 1.13258-.75677 2.32809-1.39578 3.58653-1.91707 1.25845-.52125 2.55566-.9148 3.89163-1.1805 1.33595-.26571 2.68502-.3986 4.04715-.3986 1.36214 0 2.71118.13289 4.04714.3986 1.33595.2657 2.63316.65925 3.89161 1.1805 1.25844.52129 2.45395 1.1603 3.58654 1.91707 1.13256.75673 2.18045 1.6167 3.14363 2.57989.96316.96317 1.82313 2.01102 2.57991 3.14362.75676 1.1326 1.39576 2.3281 1.91704 3.58655.52125 1.25845.91476 2.55563 1.18049 3.8916.26576 1.33597.39864 2.68503.39865 4.04717z"
       fill="none"
       stroke="#2e86b2"
       stroke-width="3"
       transform="matrix(.71874997 0 0 .71874997 -56.390626 -85.890628)"
       id="path106" />
    <path
       d="m220 255c0 .81879-.04013 1.6356-.12039 2.45045-.08026.81482-.20027 1.62375-.36002 2.42679-.15972.80306-.35842 1.59634-.59611 2.37986-.23769.78356-.5132 1.5535-.82654 2.30996-.31332.75647-.66298 1.49574-1.04895 2.21784s-.80639 1.42355-1.26129 2.10433c-.45486.68082-.94202 1.33767-1.46146 1.97061-.51942.63294-1.06862 1.23886-1.64759 1.81781-.57897.57898-1.18491 1.12818-1.81783 1.64759-.63292.51944-1.28978 1.00659-1.97058 1.46145-.68079.45491-1.38224.87537-2.10433 1.26131-.72211.386-1.46139.73564-2.21784 1.04896-.75644.31333-1.52643.58884-2.30996.82651-.78352.2377-1.57682.4364-2.37988.59613-.80303.15976-1.61195.27979-2.42679.36-.81484.08028-1.63165.1204-2.45044.1204-.81877 0-1.63559-.04012-2.45042-.1204-.81485-.08021-1.62381-.20024-2.42687-.36-.80302-.15973-1.59631-.35843-2.37985-.5961-.78351-.2377-1.5535-.51321-2.30997-.82654-.75643-.31332-1.49571-.66296-2.21781-1.04892-.7221-.38598-1.42354-.80644-2.10434-1.26135-.68079-.45486-1.33765-.94201-1.97057-1.46145-.63292-.51941-1.23888-1.06861-1.81784-1.64759-.57896-.57895-1.12816-1.18487-1.64758-1.81785-.51945-.6329-1.00661-1.28975-1.46151-1.97057-.45488-.68078-.8753-1.38223-1.26127-2.10434-.38597-.72209-.73563-1.46136-1.04897-2.21783-.31334-.75646-.58883-1.5264-.82652-2.30996-.23768-.78352-.43638-1.5768-.59612-2.37986-.15974-.80304-.27973-1.61197-.35998-2.42679-.08025-.81485-.12038-1.63166-.12038-2.45045 0-.81877.04013-1.63559.12038-2.45044.08025-.81483.20024-1.62379.35998-2.42685.15974-.80304.35844-1.59632.59612-2.37985.23769-.78352.51318-1.55351.82652-2.30997.31334-.75645.663-1.49572 1.04897-2.21781.38597-.7221.80639-1.42356 1.26127-2.10436.4549-.68079.94206-1.33765 1.46151-1.97057.51942-.63291 1.06862-1.23887 1.64758-1.81784.57896-.57896 1.18492-1.12815 1.81784-1.64758s1.28978-1.00659 1.97055-1.46149c.6808-.45488 1.38225-.8753 2.10434-1.26127.72212-.38597 1.4614-.73564 2.21783-1.04898.75647-.31331 1.52646-.58881 2.30999-.8265.78354-.23767 1.57682-.43639 2.37985-.59613.80305-.15971 1.61201-.2797 2.42685-.35997.81483-.08024 1.63165-.12037 2.45042-.12039.81879.00002 1.6356.04015 2.45044.1204.81484.08026 1.62376.20025 2.42679.35998.80306.15974 1.59633.35846 2.37985.59615.78352.23765 1.55352.51315 2.30997.82647.75647.31334 1.49575.66301 2.21785 1.04898.72209.38597 1.42354.80638 2.10432 1.26126.68081.4549 1.33767.94206 1.97058 1.46149.63294.51943 1.23888 1.06862 1.81785 1.64758.57897.57897 1.12818 1.18493 1.64761 1.81784.51942.63292 1.00658 1.28978 1.46144 1.97057.45491.6808.87534 1.38226 1.2613 2.10436.38599.72209.73565 1.46136 1.04896 2.21781.31334.75646.58884 1.52645.82652 2.30997.23769.78353.43639 1.57681.59612 2.37985.15975.80306.27976 1.61202.36003 2.42685.08024.81485.12037 1.63167.12037 2.45044z"
       fill="none"
       stroke="#ee9d96"
       stroke-width="3"
       transform="matrix(.71874997 0 0 .71874997 -56.390626 -85.890628)"
       id="path107" />
    <path
       d="m160 292.51c.00002 1.1463-.05616 2.28985-.16853 3.4306-.11237 1.1408-.28037 2.2733-.504 3.39758-.22362 1.12426-.50181 2.23486-.83457 3.33181-.33274 1.09691-.71847 2.1749-1.15714 3.23391-.43866 1.05906-.92818 2.09404-1.46854 3.10496-.54036 1.01094-1.12895 1.99301-1.76581 2.94611-.63682.95309-1.31885 1.87271-2.04605 2.75882-.72719.88607-1.49606 1.7344-2.30662 2.54495-.81055.81055-1.65888 1.57944-2.54499 2.30664-.88609.7272-1.80569 1.40921-2.7588 2.04605-.9531.63684-1.93512 1.22543-2.94608 1.76581-1.01094.54036-2.04593 1.02986-3.10497 1.4685-1.05903.43869-2.13702.82441-3.23394 1.15714-1.09694.33279-2.20755.61099-3.3318.83459-1.12427.22363-2.25679.39163-3.39756.50403-1.140771.11234-2.28431.1685-3.4306.1685s-2.289822-.05616-3.430592-.1685c-1.140778-.1124-2.2733-.2804-3.397578-.50403-1.12426-.2236-2.234861-.5018-3.331792-.83457-1.096938-.33275-2.174919-.71847-3.233968-1.15716-1.05903-.43864-2.09401-.92814-3.10495-1.4685-1.01095-.54038-1.99297-1.12897-2.94608-1.76584-.9531-.63684-1.872702-1.31885-2.758803-2.04602-.886107-.7272-1.734427-1.49609-2.544977-2.30664s-1.57942-1.65888-2.30662-2.54495c-.72721-.88611-1.40923-1.80573-2.04608-2.75885-.63684-.9531-1.22544-1.93514-1.76579-2.94608-.54036-1.01092-1.02988-2.0459-1.468552-3.10496-.438659-1.05901-.824368-2.137-1.157119-3.23394-.332759-1.09692-.610949-2.20752-.83458-3.33178-.223629-1.12428-.391619-2.25678-.503969-3.39758-.11237-1.14075-.16855-2.2843-.16855-3.4306 0-1.14625.05618-2.2898.16854-3.43055.11236-1.14078.28035-2.27332.503979-3.39762.223631-1.12426.501821-2.23486.83458-3.33178.332751-1.09696.71846-2.17495 1.157119-3.23398.438672-1.05902.928192-2.094 1.468542-3.10497.54036-1.01094 1.12896-1.99296 1.7658-2.94606.63685-.95309 1.31887-1.87268 2.04607-2.75879.72721-.8861 1.49608-1.73445 2.30663-2.54498.81055-.81057 1.65888-1.57944 2.54498-2.30664.886098-.7272 1.8057-1.40923 2.7588-2.04605.95311-.63684 1.93513-1.22543 2.94608-1.76581 1.01094-.54037 2.04592-1.02988 3.10495-1.46853 1.059049-.43864 2.13703-.82435 3.233968-1.15714 1.096931-.33273 2.207532-.6109 3.331792-.83456 1.124278-.22364 2.2568-.39164 3.397578-.50397 1.14077-.11237 2.284302-.16857 3.430592-.16857s2.28982.0562 3.43059.16857c1.14078.11233 2.2733.28033 3.39757.50397 1.12425.22366 2.23484.50183 3.33179.83456 1.09693.33279 2.17492.7185 3.23395 1.15714 1.05904.43865 2.09403.92816 3.10497 1.46853 1.01094.54038 1.99297 1.12897 2.94606 1.76581.95311.63682 1.87273 1.31885 2.75882 2.04605.88611.7272 1.73444 1.49607 2.54499 2.30664.81056.81053 1.57943 1.65888 2.30664 2.54498.72718.88611 1.40921 1.8057 2.04603 2.75879.63686.9531 1.22545 1.93512 1.76581 2.94606.54036 1.01097 1.02988 2.04595 1.46854 3.10497.43867 1.05903.8244 2.13702 1.15714 3.23398.33276 1.09692.61095 2.20752.83457 3.33178.22363 1.1243.39163 2.25684.504 3.39762.11237 1.14075.16855 2.2843.16853 3.43055z"
       fill="none"
       stroke="#ee9d96"
       stroke-width="3"
       transform="matrix(.71874997 0 0 .71874997 -56.390626 -85.890628)"
       id="path108" />
    <path
       d="m275 250c0 1.3132-.1281 2.61379-.3843 3.90177s-.6356 2.53861-1.13815 3.75187c-.50255 1.21325-1.11859 2.36584-1.84818 3.45773-.72958 1.09192-1.55868 2.10217-2.48724 3.03076-.92859.92856-1.93884 1.75763-3.03076 2.48721-1.09189.72959-2.24448 1.34566-3.45773 1.84821-1.21326.50255-2.46387.88195-3.75184 1.13815-1.288.2562-2.5886.3843-3.9018.3843-1.31321 0-2.61383-.1281-3.90182-.3843-1.28798-.2562-2.53861-.6356-3.75188-1.13815-1.21326-.50255-2.36583-1.11862-3.45773-1.84821-1.09189-.72958-2.10213-1.55865-3.03072-2.48721-.92859-.92859-1.75767-1.93884-2.48726-3.03076-.7296-1.09189-1.34565-2.24448-1.8482-3.45773-.50255-1.21326-.88193-2.46388-1.13811-3.75186-.2562-1.28798-.38429-2.58858-.38428-3.90178-.00001-1.31323.12808-2.61384.38428-3.90182.25618-1.28798.63556-2.53861 1.13811-3.75186.50255-1.21326 1.1186-2.36583 1.84819-3.45774.7296-1.0919 1.55868-2.10215 2.48727-3.03073.92859-.9286 1.93883-1.75769 3.03072-2.48726 1.0919-.7296 2.24447-1.34565 3.45773-1.8482 1.21327-.50254 2.4639-.8819 3.75188-1.13809 1.28799-.2562 2.58861-.3843 3.90182-.3843 1.3132 0 2.6138.1281 3.9018.3843 1.28797.25619 2.53858.63555 3.75184 1.1381 1.21325.50254 2.36584 1.11859 3.45773 1.84819 1.09192.72957 2.10217 1.55866 3.03076 2.48726.92856.92858 1.75766 1.93883 2.48724 3.03073.72959 1.09191 1.34563 2.24448 1.84821 3.45772.50252 1.21327.88192 2.4639 1.13812 3.75188s.3843 2.58859.3843 3.90182z"
       fill="none"
       stroke="#525866"
       stroke-width="3"
       transform="matrix(.71874997 0 0 .71874997 -56.390626 -85.890628)"
       id="path109" />
    <path
       d="m275 312.16c0 .98253-.04815 1.96269-.14443 2.9405-.09631.9778-.24033 1.94855-.43204 2.9122-.19168.96366-.43014 1.91559-.71536 2.8558-.28519.94023-.61581 1.86424-.99182 2.77198-.37601.90775-.79556 1.79489-1.25875 2.66141-.46314.86651-.9677 1.70825-1.51356 2.52518-.54587.81698-1.13044 1.60522-1.75375 2.36473-.62332.7595-1.28239 1.4866-1.97711 2.18138-.69474.69476-1.42188 1.35379-2.1814 1.97711-.75952.62331-1.54778 1.20789-2.36472 1.75375-.81692.5459-1.65866 1.05042-2.52517 1.51355-.86649.46317-1.75364.88271-2.66141 1.25871-.90775.37603-1.83173.70666-2.77197.99187-.94021.28523-1.89215.52369-2.85582.71537-.96363.19171-1.93437.33572-2.91217.43203-.97782.09629-1.95799.14443-2.94052.14443s-1.9627-.04814-2.9405-.14446c-.97783-.09628-1.94857-.24029-2.91223-.432-.96364-.19168-1.91558-.43014-2.85581-.71534-.94023-.28524-1.86423-.61587-2.77199-.9919-.90774-.376-1.79487-.79554-2.66139-1.25871-.86653-.46313-1.70827-.96765-2.52522-1.51355-.81694-.54586-1.60517-1.13044-2.36469-1.75375-.7595-.62332-1.48663-1.28235-2.18139-1.97711-.69475-.69478-1.35378-1.42188-1.97708-2.18138-.62334-.75951-1.20794-1.54775-1.75382-2.36473-.54585-.81693-1.05037-1.65867-1.51355-2.52517-.46315-.86653-.88274-1.75367-1.25874-2.66142-.37599-.90774-.70659-1.83175-.99181-2.77198-.2852-.94021-.52365-1.89214-.71535-2.8558-.19166-.96365-.33566-1.9344-.43196-2.9122-.0963-.97781-.14445-1.95797-.14447-2.9405.00002-.9825.04817-1.9627.14447-2.94051s.2403-1.94854.43196-2.9122c.1917-.96365.43015-1.91559.71535-2.85583.28522-.94022.61582-1.8642.99181-2.77198.376-.90774.79559-1.79488 1.25876-2.6614.46316-.86649.96768-1.70822 1.51355-2.52521.54588-.81693 1.13047-1.60517 1.7538-2.36467.6233-.75951 1.28233-1.48665 1.97708-2.18141.69476-.69474 1.4219-1.35379 2.18141-1.97711.7595-.62333 1.54773-1.20792 2.36465-1.75379.81697-.54589 1.65871-1.05039 2.52523-1.51352.86653-.46317 1.75366-.88278 2.6614-1.25879.90776-.37598 1.83176-.70658 2.77199-.99179s1.89217-.52369 2.85581-.71536c.96366-.19168 1.9344-.33563 2.91223-.43193.9778-.09633 1.95797-.1445 2.9405-.1445s1.9627.04817 2.9405.1445c.97782.0963 1.94856.24025 2.91219.43193.96367.19167 1.91561.43015 2.85584.71536.94022.28521 1.8642.61581 2.77195.99179.90777.37601 1.79492.79562 2.66141 1.25879.86651.46313 1.70825.96763 2.52517 1.51352.81694.54587 1.6052 1.13046 2.36472 1.75379.75952.62332 1.48666 1.28237 2.1814 1.97711.69472.69476 1.35379 1.4219 1.97711 2.18141.62331.7595 1.20788 1.54774 1.75375 2.36467.5459.81699 1.05042 1.65872 1.51356 2.52521.4632.86652.8828 1.75366 1.25878 2.6614.37601.90778.70662 1.83176.99182 2.77198.2852.94024.52365 1.89221.71533 2.85584.19171.96368.33573 1.9344.43204 2.9122.09628.97784.14443 1.958.14443 2.9405z"
       fill="none"
       stroke="#ee9d96"
       stroke-width="3"
       transform="matrix(.71874997 0 0 .71874997 -56.390626 -85.890628)"
       id="path110" />
    <path
       d="m215 190c0 1.31322-.1281 2.61382-.38431 3.9018s-.63559 2.5386-1.13813 3.75184c-.50256 1.21326-1.11861 2.36583-1.84821 3.45774-.72957 1.0919-1.55865 2.10215-2.48723 3.03074-.9286.92858-1.93886 1.75765-3.03076 2.48723-1.0919.72959-2.24448 1.34565-3.45772 1.84822-1.21325.50255-2.46386.88193-3.75184 1.13812-1.288.25621-2.5886.38431-3.9018.38431-1.31321 0-2.61383-.1281-3.90181-.38431-1.28799-.25619-2.53862-.63557-3.75187-1.13812-1.21326-.50257-2.36583-1.11863-3.45774-1.84822-1.0919-.72958-2.10214-1.55865-3.03073-2.48723-.92859-.92859-1.75767-1.93884-2.48727-3.03074-.72958-1.09191-1.34563-2.24448-1.84818-3.45774-.50255-1.21324-.88192-2.46386-1.1381-3.75184-.25622-1.28798-.38431-2.58858-.3843-3.9018-.00001-1.31321.12808-2.61383.38428-3.90182.2562-1.28798.63557-2.53861 1.13812-3.75186.50255-1.21326 1.1186-2.36583 1.84818-3.45774.7296-1.09189 1.55868-2.10212 2.48727-3.03071s1.93883-1.75768 3.03072-2.48727c1.0919-.7296 2.24449-1.34565 3.45775-1.8482 1.21325-.50255 2.46388-.88191 3.75187-1.13812 1.28798-.25618 2.5886-.38426 3.90181-.38428 1.3132.00002 2.6138.1281 3.90178.38428 1.28798.25621 2.53861.63557 3.75186 1.13812 1.21324.50255 2.36583 1.1186 3.45774 1.8482 1.0919.72959 2.10214 1.55868 3.03074 2.48727.92858.92859 1.75766 1.93882 2.48723 3.03073.7296 1.09189 1.34565 2.24446 1.84821 3.45772.50254 1.21325.88192 2.46388 1.13813 3.75186.25621 1.28799.38431 2.58861.38431 3.90182z"
       fill="none"
       stroke="#525866"
       stroke-width="3"
       transform="matrix(.71874997 0 0 .71874997 -56.390626 -85.890628)"
       id="path111" />
    <path
       d="m168.51 342.51c-.00002.9849-.09609 1.96038-.28824 2.92635-.19216.96595-.47669 1.90393-.85359 2.81385-.37693.90997-.83898 1.7744-1.38616 2.5933-.54719.81896-1.16901 1.57665-1.86543 2.27309-.69646.69644-1.45413 1.31821-2.27306 1.86541-.81892.54719-1.68335 1.00925-2.5933 1.38617-.90993.3769-1.8479.66141-2.81389.85358-.96598.19215-1.94143.28824-2.92633.28825-.98491-.00001-1.96038-.0961-2.92638-.28825-.96599-.19217-1.90396-.47668-2.8139-.85358-.90995-.37692-1.77437-.83898-2.5933-1.38617-.81892-.5472-1.57659-1.16897-2.27304-1.86541-.69644-.69644-1.31825-1.45413-1.86544-2.27309-.5472-.8189-1.00924-1.68333-1.38614-2.5933-.37691-.90992-.66143-1.8479-.85358-2.81385-.19214-.96597-.28821-1.94145-.28822-2.92635.00001-.98487.09608-1.96034.28822-2.92637.19215-.96603.47667-1.90396.85358-2.81393.3769-.90992.83894-1.77436 1.38614-2.5933.54719-.81894 1.169-1.5766 1.86544-2.27301.69645-.69644 1.45412-1.31829 2.27304-1.86549.81893-.54714 1.68335-1.00917 2.5933-1.3861.90994-.37692 1.84791-.66143 2.8139-.85357.966-.19213 1.94147-.28818 2.92638-.28823.9849.00005 1.96035.0961 2.92634.28823.96599.19214 1.90395.47665 2.81388.85357.90995.37693 1.77438.83896 2.5933 1.3861.81893.5472 1.5766 1.16905 2.27306 1.86549.69642.69641 1.31824 1.45407 1.86543 2.27301.54718.81894 1.00923 1.68338 1.38616 2.5933.3769.90997.66143 1.8479.85359 2.81393.19215.96603.28822 1.9415.28824 2.92637z"
       fill="none"
       stroke="#ee9d96"
       stroke-width="3"
       transform="matrix(.71874997 0 0 .71874997 -56.390626 -85.890628)"
       id="path112" />
  </g>
</svg>
