<?xml version="1.0" encoding="UTF-8" standalone="no"?>
<!-- Created with Inkscape (http://www.inkscape.org/) -->

<svg
   version="1.1"
   id="svg1"
   width="456.79993"
   height="176.71976"
   viewBox="0 0 456.79993 176.71976"
   sodipodi:docname="logo_umag.svg"
   inkscape:version="1.4.2 (ebf0e940d0, 2025-05-08)"
   xmlns:inkscape="http://www.inkscape.org/namespaces/inkscape"
   xmlns:sodipodi="http://sodipodi.sourceforge.net/DTD/sodipodi-0.dtd"
   xmlns="http://www.w3.org/2000/svg"
   xmlns:svg="http://www.w3.org/2000/svg">
  <defs
     id="defs1">
    <clipPath
       clipPathUnits="userSpaceOnUse"
       id="clipPath1">
      <path
         d="M 0,0 H 343 V 133 H 0 Z"
         id="path1" />
    </clipPath>
    <clipPath
       clipPathUnits="userSpaceOnUse"
       id="clipPath2">
      <path
         d="M 0,0 H 343 V 133 H 0 Z"
         id="path2" />
    </clipPath>
  </defs>
  <sodipodi:namedview
     id="namedview1"
     pagecolor="#ffffff"
     bordercolor="#000000"
     borderopacity="0.25"
     inkscape:showpageshadow="2"
     inkscape:pageopacity="0.0"
     inkscape:pagecheckerboard="0"
     inkscape:deskcolor="#d1d1d1"
     inkscape:zoom="0.79028034"
     inkscape:cx="228.39996"
     inkscape:cy="88.576162"
     inkscape:window-width="1129"
     inkscape:window-height="1024"
     inkscape:window-x="0"
     inkscape:window-y="0"
     inkscape:window-maximized="0"
     inkscape:current-layer="g1">
    <inkscape:page
       x="0"
       y="0"
       inkscape:label="1"
       id="page1"
       width="456.79993"
       height="176.71976"
       margin="0"
       bleed="0" />
  </sodipodi:namedview>
  <g
     id="g1"
     inkscape:groupmode="layer"
     inkscape:label="1">
    <g
       id="g4">
      <path
         d="m 320.574,89.812 c 3.274,-0.253 6.504,-0.714 9.699,-1.386 3.192,-0.672 5.875,-1.656 8.059,-2.961 2.184,-1.301 3.277,-3.039 3.277,-5.227 V 45.219 c 0,-3.356 -1.683,-5.035 -5.039,-5.035 H 311 c -2.52,0 -3.777,2.097 -3.777,6.296 v 4.032 c 0,4.199 1.257,6.297 3.777,6.297 h 11.086 v 23.304 l 5.543,-8.566 c -3.109,0.758 -5.777,1.305 -8,1.641 -2.227,0.332 -4.684,0.5 -7.371,0.5 -3.61,0 -6.758,-0.606 -9.446,-1.825 -2.687,-1.215 -4.933,-3.023 -6.738,-5.418 -1.808,-2.394 -3.148,-5.394 -4.031,-9.007 -0.883,-3.61 -1.324,-7.766 -1.324,-12.469 0,-6.297 0.777,-11.543 2.332,-15.746 1.551,-4.2 3.945,-7.344 7.179,-9.446 3.231,-2.097 7.325,-3.148 12.282,-3.148 4.031,0 7.367,0.336 10.015,1.008 2.645,0.672 4.7,1.343 6.172,2.015 1.465,0.672 2.453,1.004 2.957,1.004 1.09,0 2.27,-0.73 3.528,-2.203 1.261,-1.469 2.351,-3.148 3.277,-5.039 0.922,-1.887 1.383,-3.422 1.383,-4.598 0,-1.339 -0.86,-2.539 -2.582,-3.589 C 335.543,4.18 333.297,3.258 330.523,2.457 327.754,1.66 324.812,1.051 321.707,0.629 318.598,0.211 315.66,0 312.891,0 c -13.942,0 -24.438,3.715 -31.493,11.148 -7.054,7.43 -10.582,18.664 -10.582,33.696 0,15.535 3.383,26.976 10.141,34.324 6.758,7.348 17.195,11.023 31.301,11.023 2.269,0 5.039,-0.129 8.316,-0.379 M 223.078,32.371 c 0.504,-1.34 0.883,-2.683 1.133,-4.027 0.254,-1.344 0.504,-2.688 0.758,-4.032 h 0.504 c 0.25,1.344 0.523,2.688 0.816,4.032 0.293,1.344 0.652,2.687 1.074,4.027 l 7.18,22.422 h -18.895 z m -23.68,57.063 c 1.512,0 2.77,-0.211 3.778,-0.629 1.008,-0.418 1.679,-1.09 2.015,-2.016 l 5.039,-15.367 h 29.727 l 5.039,15.367 c 0.336,1.008 1.133,1.699 2.395,2.078 1.257,0.379 2.812,0.567 4.66,0.567 h 5.539 c 4.203,0 6.301,-0.922 6.301,-2.77 0,-0.672 -0.125,-1.43 -0.379,-2.269 L 235.801,3.402 c -0.59,-1.765 -2.981,-2.644 -7.18,-2.644 h -6.551 c -4.113,0 -6.508,0.879 -7.179,2.644 L 187.18,84.395 c -0.086,0.421 -0.188,0.82 -0.317,1.199 -0.125,0.379 -0.187,0.734 -0.187,1.07 0,1.848 2.562,2.77 7.683,2.77 z M 134.152,68.145 c 2.18,0 3.86,-0.793 5.039,-2.391 l 15.493,-27.711 c 0.504,-0.84 0.984,-1.656 1.445,-2.457 0.461,-0.801 0.902,-1.617 1.324,-2.457 l 0.504,0.125 v 52.148 c 0,2.692 2.52,4.032 7.559,4.032 h 3.652 c 5.039,0 7.559,-1.34 7.559,-4.032 V 4.785 c 0,-2.683 -2.52,-4.027 -7.559,-4.027 h -6.551 c -1.847,0 -3.461,0.25 -4.847,0.754 -1.387,0.504 -2.418,1.386 -3.086,2.644 l -21.289,37.285 c -0.168,0.336 -0.36,0.676 -0.567,1.008 -0.211,0.336 -0.398,0.715 -0.566,1.137 -0.172,-0.422 -0.379,-0.801 -0.633,-1.137 -0.25,-0.332 -0.461,-0.672 -0.629,-1.008 L 110.09,4.156 c -0.672,-1.258 -1.699,-2.14 -3.086,-2.644 -1.383,-0.504 -3,-0.754 -4.848,-0.754 H 95.48 c -5.039,0 -7.558,1.344 -7.558,4.027 v 80.617 c 0,2.692 2.519,4.032 7.558,4.032 h 3.653 c 5.039,0 7.558,-1.34 7.558,-4.032 V 33.254 l 0.504,-0.125 c 0.418,0.84 0.86,1.656 1.321,2.457 0.461,0.801 0.945,1.617 1.449,2.457 l 15.492,27.711 c 1.176,1.598 2.855,2.391 5.039,2.391 z"
         style="fill:#593d80;fill-opacity:1;fill-rule:nonzero;stroke:none"
         transform="scale(1.3333333)"
         clip-path="url(#clipPath1)"
         id="path3" />
      <path
         d="m 63.801,82.191 c 6.422,-5.332 9.637,-12.828 9.637,-22.488 V 4.777 c 0,-2.687 -2.52,-4.031 -7.559,-4.031 h -4.156 c -5.039,0 -7.559,1.344 -7.559,4.031 v 53.668 c 0,2.938 -0.738,5.563 -2.207,7.871 -1.469,2.313 -3.484,4.118 -6.047,5.418 -2.562,1.305 -5.562,1.954 -9.008,1.954 -3.359,0 -6.34,-0.649 -8.941,-1.954 -2.606,-1.3 -4.621,-3.105 -6.051,-5.418 -1.426,-2.308 -2.14,-4.933 -2.14,-7.871 V 4.777 C 19.77,2.09 17.25,0.746 12.211,0.746 H 7.93 c -5.039,0 -7.559,1.344 -7.559,4.031 v 54.926 c 0,9.66 3.211,17.156 9.637,22.488 6.426,5.332 15.387,8 26.894,8 11.508,0 20.473,-2.668 26.899,-8"
         style="fill:#4a5cab;fill-opacity:1;fill-rule:nonzero;stroke:none"
         transform="scale(1.3333333)"
         clip-path="url(#clipPath2)"
         id="path4" />
    </g>
    <path
       id="path5"
       d="m 8.2498554,0.28111294 c -1.359375,0 -2.5195313,-0.19921875 -3.4335938,-0.64453125 C 3.9021991,-0.79701206 3.2107929,-1.4415433 2.7654804,-2.2384183 c -0.4453125,-0.8320313 -0.65625,-1.828125 -0.65625,-2.9648438 0,-0.328125 0,-0.6914062 0.046875,-1.1132812 0.058594,-0.4335938 0.1171875,-0.8789063 0.2226562,-1.3476563 L 4.9568866,-19.75795 H 7.9217304 L 5.3201679,-7.5821683 c -0.09375,0.3867187 -0.140625,0.796875 -0.1992188,1.21875 -0.058594,0.4101562 -0.082031,0.75 -0.082031,1.0195312 0,0.9726563 0.3046875,1.7226563 0.8554687,2.2382813 0.5859375,0.5625 1.4414063,0.8085937 2.578125,0.8085937 0.9960938,0 1.8281252,-0.1640625 2.4843752,-0.5273437 0.667968,-0.3632813 1.195312,-0.890625 1.582031,-1.6054688 0.386719,-0.6914062 0.691406,-1.5820312 0.9375,-2.6015625 L 16.160012,-19.75795 h 2.964843 l -2.742187,12.9726567 c -0.304688,1.4179687 -0.773438,2.6601562 -1.40625,3.7382812 -0.667969,1.0546875 -1.523438,1.8867188 -2.636719,2.46093754 -1.078125,0.5859374975 -2.4609374,0.8671875 -4.0898436,0.8671875 z M 20.868019,-1.370625e-4 24.055519,-14.9767 h 2.425782 l -0.304688,2.765625 h 0.05859 c 0.363281,-0.492187 0.773437,-0.996093 1.242187,-1.429687 0.480469,-0.480469 1.03125,-0.867188 1.640625,-1.136719 0.609375,-0.304687 1.300782,-0.46875 2.074219,-0.46875 0.796875,0 1.5,0.164063 2.074219,0.46875 0.585937,0.328125 0.996094,0.773438 1.300781,1.347656 0.304688,0.585938 0.445313,1.277344 0.445313,2.109375 0,0.386719 -0.02344,0.796875 -0.08203,1.242188 -0.05859,0.4453124 -0.140625,0.8320312 -0.222656,1.2187499 L 32.797707,-1.370625e-4 H 29.785988 L 31.719582,-9.1641996 c 0.08203,-0.3867187 0.164062,-0.7148437 0.1875,-1.0195314 0.05859,-0.28125 0.08203,-0.527344 0.08203,-0.773437 0,-0.585938 -0.164062,-1.03125 -0.433594,-1.335938 -0.304687,-0.269531 -0.75,-0.410156 -1.335937,-0.410156 -0.609375,0 -1.242188,0.222656 -1.875,0.691406 -0.667969,0.445313 -1.253906,1.136719 -1.804688,2.0742189 -0.527343,0.9375 -0.960937,2.1328125 -1.265625,3.5976563 l -1.394531,6.3398437375 z m 16.051758,0 L 40.072121,-14.894668 h 2.941406 l -3.1875,14.8945309375 z M 42.263527,-17.191543 c -0.445312,0 -0.808593,-0.140625 -1.113281,-0.363282 -0.304687,-0.246093 -0.433594,-0.574218 -0.433594,-1.042968 0,-0.386719 0.08203,-0.726563 0.222657,-0.996094 0.164062,-0.304688 0.351562,-0.527344 0.632812,-0.691406 0.269531,-0.175782 0.632813,-0.28125 1.019531,-0.28125 0.46875,0 0.832032,0.140625 1.078125,0.363281 0.28125,0.222656 0.421875,0.550781 0.421875,1.019531 0,0.609375 -0.164062,1.078125 -0.527343,1.441406 -0.363282,0.363282 -0.773438,0.550782 -1.300782,0.550782 z M 47.220559,-1.370625e-4 45.439309,-14.894668 h 2.90625 l 0.75,8.1445309 c 0.05859,0.4101563 0.08203,0.8789063 0.140625,1.4296875 0.02344,0.5859375 0.05859,1.1132813 0.08203,1.640625 0,0.4921875 0.02344,0.9140625 0.02344,1.1835938 h 0.09375 c 0.1875,-0.4101563 0.386719,-0.8789063 0.632813,-1.40625 0.222656,-0.5273438 0.46875,-1.0546875 0.714844,-1.5820313 0.246093,-0.5273437 0.445312,-0.9609375 0.644531,-1.3007812 l 4.253906,-8.1093747 h 3.128906 L 50.736184,-1.370625e-4 Z M 64.92466,0.28111294 c -1.160156,0 -2.15625,-0.22265625 -2.988281,-0.66796875 -0.832031,-0.4453125 -1.464844,-1.07812499 -1.910156,-1.93359379 -0.433594,-0.8320312 -0.65625,-1.8632812 -0.65625,-3.046875 0,-1.21875 0.1875,-2.4140625 0.527343,-3.5507812 0.351563,-1.1601562 0.855469,-2.2148442 1.511719,-3.1523442 0.667969,-0.9375 1.476563,-1.710937 2.4375,-2.273437 0.949219,-0.550781 2.027344,-0.820313 3.246094,-0.820313 1.488281,0 2.601562,0.304688 3.375,0.960938 0.75,0.667969 1.101562,1.558594 1.101562,2.683594 0,0.726562 -0.164062,1.417968 -0.492187,2.0507809 -0.363281,0.6679688 -0.890625,1.21875 -1.582031,1.6875 -0.691407,0.46875 -1.605469,0.8320313 -2.683594,1.1132813 -1.078125,0.2460937 -2.378906,0.3867187 -3.902344,0.3867187 h -0.550781 c 0,0.140625 -0.03516,0.3046875 -0.03516,0.4453125 0,0.1640625 0,0.3046875 0,0.4335938 0,1.03125 0.257812,1.8632812 0.785156,2.4726562 0.550781,0.5742188 1.324219,0.8789063 2.378906,0.8789063 0.714844,0 1.40625,-0.082031 2.015625,-0.2695313 0.632813,-0.2226562 1.359375,-0.5039062 2.132813,-0.8671875 v 2.39062504 c -0.714844,0.328125 -1.441407,0.57421875 -2.15625,0.7968749975 C 66.752785,0.19908169 65.897316,0.28111294 64.92466,0.28111294 Z M 63.073098,-8.4727933 c 1.078125,0 2.050781,-0.1054688 2.90625,-0.3046875 0.855468,-0.2226563 1.523437,-0.5273438 2.027343,-0.9609375 0.492188,-0.4218747 0.738282,-0.9726567 0.738282,-1.6406247 0,-0.445313 -0.164063,-0.832032 -0.433594,-1.101563 -0.304688,-0.28125 -0.785156,-0.421875 -1.394531,-0.421875 -0.550782,0 -1.101563,0.199219 -1.652344,0.527344 -0.550781,0.363281 -1.054688,0.855469 -1.5,1.523437 -0.445313,0.667969 -0.773438,1.4414067 -1.019531,2.3789067 z M 74.252785,-1.370625e-4 77.405129,-14.894668 h 2.332031 l -0.304687,2.742187 h 0.140625 c 0.386718,-0.550781 0.796875,-1.054687 1.242187,-1.488281 0.445313,-0.480469 0.9375,-0.832031 1.488281,-1.113281 0.527344,-0.28125 1.171875,-0.410157 1.828125,-0.410157 0.257813,0 0.527344,0 0.808594,0.02344 0.269531,0.02344 0.492188,0.08203 0.714844,0.140625 l -0.632813,2.707031 c -0.199218,-0.04687 -0.445312,-0.105469 -0.667968,-0.140625 -0.222657,-0.02344 -0.46875,-0.04687 -0.714844,-0.04687 -0.644531,0 -1.21875,0.164063 -1.769531,0.46875 -0.5625,0.304688 -1.03125,0.75 -1.476563,1.277344 -0.433594,0.515625 -0.796875,1.1249999 -1.101562,1.8164062 -0.304688,0.6914062 -0.550782,1.4179687 -0.691407,2.1679687 L 77.159035,-1.370625e-4 Z M 88.675637,0.28111294 c -0.914063,0 -1.722657,-0.0585937 -2.414063,-0.22265625 -0.691406,-0.1640625 -1.300781,-0.421875 -1.851562,-0.69140625 V -3.2110746 c 0.550781,0.328125 1.195312,0.609375 1.910156,0.8554688 0.726562,0.2226562 1.464844,0.3632812 2.238281,0.3632812 0.644531,0 1.195313,-0.1171875 1.664063,-0.28125 0.445312,-0.1640625 0.808593,-0.4101562 1.054687,-0.7148437 0.246094,-0.328125 0.363281,-0.6914063 0.363281,-1.1367188 0,-0.328125 -0.05859,-0.6328125 -0.199218,-0.890625 -0.140625,-0.2109375 -0.386719,-0.4921875 -0.75,-0.7382812 -0.328125,-0.2578125 -0.832032,-0.5625 -1.464844,-0.9140625 -0.691406,-0.3867188 -1.242188,-0.7734375 -1.710938,-1.1601563 -0.445312,-0.3984375 -0.808593,-0.8320312 -1.054687,-1.3007812 -0.222656,-0.4804688 -0.328125,-1.0312497 -0.328125,-1.6640627 0,-0.914062 0.1875,-1.6875 0.632812,-2.355469 0.410157,-0.632812 1.019532,-1.136718 1.828125,-1.488281 0.773438,-0.363281 1.710938,-0.527344 2.765625,-0.527344 0.890625,0 1.746094,0.08203 2.519532,0.304688 0.773437,0.1875 1.464843,0.46875 2.097656,0.773437 l -0.9375,2.238282 c -0.492188,-0.246094 -1.054688,-0.492188 -1.628906,-0.691407 -0.609375,-0.199218 -1.277344,-0.304687 -2.027344,-0.304687 -0.691406,0 -1.242188,0.164062 -1.6875,0.503906 -0.433594,0.328125 -0.632813,0.773438 -0.632813,1.300781 0,0.304688 0.05859,0.550782 0.199219,0.796875 0.105469,0.2460942 0.351563,0.4687504 0.691406,0.7148442 0.328125,0.2578125 0.796875,0.5625 1.40625,0.890625 0.632813,0.3632812 1.195313,0.7148437 1.6875,1.078125 0.503907,0.3867187 0.890625,0.8085937 1.160157,1.3007812 0.28125,0.5039063 0.421875,1.078125 0.421875,1.7695313 0,1.0546875 -0.257813,1.9101562 -0.726563,2.6367187 -0.492187,0.7148438 -1.183594,1.24218754 -2.074219,1.60546879 -0.878906,0.3515625 -1.933593,0.52734375 -3.152343,0.52734375 z M 96.919777,-1.370625e-4 100.07212,-14.894668 h 2.94141 L 99.826027,-1.370625e-4 Z M 102.26353,-17.191543 c -0.44532,0 -0.8086,-0.140625 -1.11328,-0.363282 -0.30469,-0.246093 -0.4336,-0.574218 -0.4336,-1.042968 0,-0.386719 0.082,-0.726563 0.22266,-0.996094 0.16406,-0.304688 0.35156,-0.527344 0.63281,-0.691406 0.26953,-0.175782 0.63281,-0.28125 1.01953,-0.28125 0.46875,0 0.83203,0.140625 1.07813,0.363281 0.28125,0.222656 0.42187,0.550781 0.42187,1.019531 0,0.609375 -0.16406,1.078125 -0.52734,1.441406 -0.36328,0.363282 -0.77344,0.550782 -1.30078,0.550782 z m 7.22168,17.47265594 c -0.77344,0 -1.46485,-0.17578125 -2.07422,-0.5625 -0.60938,-0.3515625 -1.10156,-0.93750004 -1.46485,-1.68750004 -0.36328,-0.7734375 -0.55078,-1.7460937 -0.55078,-2.9296875 0,-1.0546875 0.10547,-2.109375 0.32813,-3.1054687 0.19922,-0.9960938 0.52734,-1.9335938 0.9375,-2.7890627 0.38672,-0.855469 0.89062,-1.605469 1.5,-2.273437 0.57422,-0.667969 1.24219,-1.183594 1.99219,-1.546875 0.75,-0.363282 1.54687,-0.550782 2.4375,-0.550782 0.65625,0 1.21875,0.105469 1.65234,0.351563 0.48047,0.222656 0.86719,0.503906 1.19531,0.890625 0.32813,0.363281 0.58594,0.75 0.8086,1.21875 h 0.1289 c 0.0352,-0.339844 0.082,-0.667969 0.14063,-1.054688 0.0352,-0.363281 0.082,-0.75 0.16406,-1.160156 0.0586,-0.421875 0.14062,-0.832031 0.22266,-1.277344 l 1.03125,-4.839843 h 2.90625 l -4.46485,21.0351559375 h -2.32031 L 114.33677,-2.4962308 h -0.11719 c -0.41015,0.5273437 -0.85547,0.9960937 -1.32422,1.4179687 -0.46875,0.41015629 -0.99609,0.75000004 -1.55859,0.99609379 -0.55078,0.24609375 -1.16016,0.36328125 -1.85156,0.36328125 z m 1.07812,-2.39062504 c 0.42188,0 0.83203,-0.1054687 1.21875,-0.328125 0.42188,-0.1875 0.8086,-0.4921875 1.13672,-0.8554687 0.36328,-0.3867188 0.69141,-0.8320313 0.99609,-1.3242188 0.30469,-0.5273437 0.58594,-1.0546875 0.8086,-1.640625 0.22265,-0.5742187 0.38672,-1.1835937 0.52734,-1.828125 0.10547,-0.6328125 0.1875,-1.2421875 0.1875,-1.875 0,-0.8320314 -0.22265,-1.5000004 -0.60937,-2.0273434 -0.41016,-0.527344 -1.05469,-0.773438 -1.91016,-0.773438 -0.52734,0 -1.01953,0.140625 -1.48828,0.445313 -0.48047,0.28125 -0.89063,0.691406 -1.25391,1.183593 -0.38672,0.527344 -0.71484,1.113282 -0.96093,1.7812504 -0.28125,0.6914063 -0.48047,1.3828125 -0.60938,2.15625 -0.17578,0.75 -0.22266,1.4882813 -0.22266,2.2734375 0,0.9375 0.1875,1.6523438 0.55079,2.1210938 0.38671,0.4453125 0.91406,0.6914062 1.6289,0.6914062 z M 125.619,0.28111294 c -0.77344,0 -1.46485,-0.17578125 -2.07422,-0.5625 -0.60938,-0.3515625 -1.10157,-0.93750004 -1.46485,-1.71093754 -0.36328,-0.75 -0.55078,-1.7460937 -0.55078,-2.90625 0,-1.078125 0.10547,-2.109375 0.35156,-3.1289062 0.22266,-0.9960938 0.52735,-1.9335938 0.94922,-2.8007812 0.41016,-0.878906 0.9375,-1.628906 1.52344,-2.261719 0.57422,-0.667969 1.24219,-1.160156 1.99219,-1.546875 0.73828,-0.363281 1.54687,-0.527344 2.3789,-0.527344 0.65625,0 1.21875,0.105469 1.71094,0.328125 0.46875,0.222657 0.89063,0.492188 1.21875,0.890625 0.32813,0.351563 0.60938,0.773438 0.8086,1.242188 h 0.1289 l 0.86719,-2.191406 h 2.21484 L 132.50962,-1.370625e-4 H 130.2479 L 130.55259,-2.4962308 h -0.11719 c -0.38672,0.5039062 -0.83203,0.9726562 -1.32422,1.3945312 -0.5039,0.43359379 -1.03125,0.77343754 -1.60547,1.01953129 -0.58593,0.24609375 -1.19531,0.36328125 -1.88671,0.36328125 z m 1.05468,-2.39062504 c 0.63282,0 1.24219,-0.2460937 1.85157,-0.7148437 0.60937,-0.4921875 1.13671,-1.1367188 1.64062,-1.9335938 0.46875,-0.8085937 0.82031,-1.6875 1.07813,-2.6601562 0.10546,-0.5039063 0.1875,-0.9375 0.24609,-1.3828125 0.0234,-0.421875 0.0586,-0.8320313 0.0586,-1.2187497 0,-0.808594 -0.22265,-1.464844 -0.66797,-1.96875 -0.44531,-0.527344 -1.01953,-0.773438 -1.76953,-0.773438 -0.52734,0 -1.03125,0.140625 -1.46484,0.421875 -0.48047,0.304688 -0.89063,0.691406 -1.27734,1.183594 -0.38672,0.503906 -0.71485,1.078125 -0.9961,1.7460937 -0.28125,0.6679687 -0.5039,1.3828125 -0.63281,2.1328125 -0.17578,0.7734375 -0.22266,1.546875 -0.22266,2.3554687 0,0.9375 0.1875,1.6523438 0.55078,2.1210938 0.38672,0.4453125 0.91407,0.6914062 1.60547,0.6914062 z m 14.63672,2.39062504 c -0.77344,0 -1.46484,-0.17578125 -2.07422,-0.5625 -0.60937,-0.3515625 -1.10156,-0.93750004 -1.46484,-1.68750004 -0.36328,-0.7734375 -0.55078,-1.7460937 -0.55078,-2.9296875 0,-1.0546875 0.10547,-2.109375 0.32812,-3.1054687 0.19922,-0.9960938 0.52735,-1.9335938 0.9375,-2.7890627 0.38672,-0.855469 0.89063,-1.605469 1.5,-2.273437 0.57422,-0.667969 1.24219,-1.183594 1.99219,-1.546875 0.75,-0.363282 1.54688,-0.550782 2.4375,-0.550782 0.65625,0 1.21875,0.105469 1.65234,0.351563 0.48047,0.222656 0.86719,0.503906 1.19532,0.890625 0.32812,0.363281 0.58593,0.75 0.80859,1.21875 h 0.12891 c 0.0351,-0.339844 0.082,-0.667969 0.14062,-1.054688 0.0352,-0.363281 0.082,-0.75 0.16406,-1.160156 0.0586,-0.421875 0.14063,-0.832031 0.22266,-1.277344 l 1.03125,-4.839843 h 2.90625 l -4.46484,21.0351559375 h -2.32032 L 146.16196,-2.4962308 h -0.11718 c -0.41016,0.5273437 -0.85547,0.9960937 -1.32422,1.4179687 -0.46875,0.41015629 -0.9961,0.75000004 -1.5586,0.99609379 -0.55078,0.24609375 -1.16015,0.36328125 -1.85156,0.36328125 z m 1.07813,-2.39062504 c 0.42187,0 0.83203,-0.1054687 1.21875,-0.328125 0.42187,-0.1875 0.80859,-0.4921875 1.13672,-0.8554687 0.36328,-0.3867188 0.6914,-0.8320313 0.99609,-1.3242188 0.30469,-0.5273437 0.58594,-1.0546875 0.80859,-1.640625 0.22266,-0.5742187 0.38672,-1.1835937 0.52735,-1.828125 0.10547,-0.6328125 0.1875,-1.2421875 0.1875,-1.875 0,-0.8320314 -0.22266,-1.5000004 -0.60938,-2.0273434 -0.41015,-0.527344 -1.05469,-0.773438 -1.91015,-0.773438 -0.52735,0 -1.01954,0.140625 -1.48829,0.445313 -0.48046,0.28125 -0.89062,0.691406 -1.2539,1.183593 -0.38672,0.527344 -0.71485,1.113282 -0.96094,1.7812504 -0.28125,0.6914063 -0.48047,1.3828125 -0.60937,2.15625 -0.17579,0.75 -0.22266,1.4882813 -0.22266,2.2734375 0,0.9375 0.1875,1.6523438 0.55078,2.1210938 0.38672,0.4453125 0.91406,0.6914062 1.62891,0.6914062 z m 21.97558,2.39062504 c -0.77343,0 -1.46484,-0.17578125 -2.07422,-0.5625 -0.60937,-0.3515625 -1.10156,-0.93750004 -1.46484,-1.68750004 -0.36328,-0.7734375 -0.55078,-1.7460937 -0.55078,-2.9296875 0,-1.0546875 0.10547,-2.109375 0.32812,-3.1054687 0.19922,-0.9960938 0.52735,-1.9335938 0.9375,-2.7890627 0.38672,-0.855469 0.89063,-1.605469 1.5,-2.273437 0.57422,-0.667969 1.24219,-1.183594 1.99219,-1.546875 0.75,-0.363282 1.54688,-0.550782 2.4375,-0.550782 0.65625,0 1.21875,0.105469 1.65235,0.351563 0.48046,0.222656 0.86718,0.503906 1.19531,0.890625 0.32812,0.363281 0.58594,0.75 0.80859,1.21875 h 0.12891 c 0.0352,-0.339844 0.082,-0.667969 0.14062,-1.054688 0.0352,-0.363281 0.082,-0.75 0.16407,-1.160156 0.0586,-0.421875 0.14062,-0.832031 0.22265,-1.277344 l 1.03125,-4.839843 h 2.90625 l -4.46484,21.0351559375 h -2.32031 L 169.21568,-2.4962308 h -0.11719 c -0.41016,0.5273437 -0.85547,0.9960937 -1.32422,1.4179687 -0.46875,0.41015629 -0.99609,0.75000004 -1.55859,0.99609379 -0.55079,0.24609375 -1.16016,0.36328125 -1.85157,0.36328125 z m 1.07813,-2.39062504 c 0.42187,0 0.83203,-0.1054687 1.21875,-0.328125 0.42187,-0.1875 0.80859,-0.4921875 1.13672,-0.8554687 0.36328,-0.3867188 0.6914,-0.8320313 0.99609,-1.3242188 0.30469,-0.5273437 0.58594,-1.0546875 0.80859,-1.640625 0.22266,-0.5742187 0.38672,-1.1835937 0.52735,-1.828125 0.10547,-0.6328125 0.1875,-1.2421875 0.1875,-1.875 0,-0.8320314 -0.22266,-1.5000004 -0.60938,-2.0273434 -0.41015,-0.527344 -1.05468,-0.773438 -1.91015,-0.773438 -0.52735,0 -1.01953,0.140625 -1.48828,0.445313 -0.48047,0.28125 -0.89063,0.691406 -1.25391,1.183593 -0.38672,0.527344 -0.71484,1.113282 -0.96094,1.7812504 -0.28125,0.6914063 -0.48047,1.3828125 -0.60937,2.15625 -0.17578,0.75 -0.22266,1.4882813 -0.22266,2.2734375 0,0.9375 0.1875,1.6523438 0.55078,2.1210938 0.38672,0.4453125 0.91406,0.6914062 1.62891,0.6914062 z m 16.52344,2.39062504 c -1.16016,0 -2.15625,-0.22265625 -2.98829,-0.66796875 -0.83203,-0.4453125 -1.46484,-1.07812499 -1.91015,-1.93359379 -0.4336,-0.8320312 -0.65625,-1.8632812 -0.65625,-3.046875 0,-1.21875 0.1875,-2.4140625 0.52734,-3.5507812 0.35156,-1.1601562 0.85547,-2.2148442 1.51172,-3.1523442 0.66797,-0.9375 1.47656,-1.710937 2.4375,-2.273437 0.94922,-0.550781 2.02734,-0.820313 3.24609,-0.820313 1.48829,0 2.60157,0.304688 3.375,0.960938 0.75,0.667969 1.10157,1.558594 1.10157,2.683594 0,0.726562 -0.16407,1.417968 -0.49219,2.0507809 -0.36328,0.6679688 -0.89063,1.21875 -1.58203,1.6875 -0.69141,0.46875 -1.60547,0.8320313 -2.6836,1.1132813 -1.07812,0.2460937 -2.3789,0.3867187 -3.90234,0.3867187 h -0.55078 c 0,0.140625 -0.0352,0.3046875 -0.0352,0.4453125 0,0.1640625 0,0.3046875 0,0.4335938 0,1.03125 0.25782,1.8632812 0.78516,2.4726562 0.55078,0.5742188 1.32422,0.8789063 2.37891,0.8789063 0.71484,0 1.40625,-0.082031 2.01562,-0.2695313 0.63281,-0.2226562 1.35938,-0.5039062 2.13281,-0.8671875 v 2.39062504 c -0.71484,0.328125 -1.4414,0.57421875 -2.15625,0.7968749975 C 183.7938,0.19908169 182.93833,0.28111294 181.96568,0.28111294 Z m -1.85157,-8.75390624 c 1.07813,0 2.05078,-0.1054688 2.90625,-0.3046875 0.85547,-0.2226563 1.52344,-0.5273438 2.02735,-0.9609375 0.49218,-0.4218747 0.73828,-0.9726567 0.73828,-1.6406247 0,-0.445313 -0.16406,-0.832032 -0.4336,-1.101563 -0.30468,-0.28125 -0.78515,-0.421875 -1.39453,-0.421875 -0.55078,0 -1.10156,0.199219 -1.65234,0.527344 -0.55078,0.363281 -1.05469,0.855469 -1.5,1.523437 -0.44531,0.667969 -0.77344,1.4414067 -1.01953,2.3789067 z M 198.49497,-1.370625e-4 202.66685,-19.75795 h 4.07812 l 1.60547,15.7500004 h 0.10547 l 8.39063,-15.7500004 h 4.37109 l -4.125,19.7578129375 h -2.88281 L 216.54185,-11.015762 c 0.16406,-0.75 0.32812,-1.5 0.49219,-2.191406 0.16406,-0.714844 0.33984,-1.347657 0.46875,-1.957032 0.14062,-0.609375 0.28125,-1.136718 0.42187,-1.582031 h -0.082 L 208.8661,-1.370625e-4 h -2.51953 L 204.6356,-16.722793 h -0.10547 c -0.0586,0.386718 -0.11719,0.890625 -0.22266,1.523437 -0.082,0.644531 -0.19922,1.300781 -0.33984,2.027344 -0.10547,0.714844 -0.24609,1.441406 -0.38672,2.097656 L 201.23716,-1.370625e-4 Z M 226.77525,0.28111294 c -0.77344,0 -1.46485,-0.17578125 -2.07422,-0.5625 -0.60938,-0.3515625 -1.10157,-0.93750004 -1.46485,-1.71093754 -0.36328,-0.75 -0.55078,-1.7460937 -0.55078,-2.90625 0,-1.078125 0.10547,-2.109375 0.35156,-3.1289062 0.22266,-0.9960938 0.52735,-1.9335938 0.94922,-2.8007812 0.41016,-0.878906 0.9375,-1.628906 1.52344,-2.261719 0.57422,-0.667969 1.24219,-1.160156 1.99219,-1.546875 0.73828,-0.363281 1.54687,-0.527344 2.3789,-0.527344 0.65625,0 1.21875,0.105469 1.71094,0.328125 0.46875,0.222657 0.89063,0.492188 1.21875,0.890625 0.32813,0.351563 0.60938,0.773438 0.8086,1.242188 h 0.1289 l 0.86719,-2.191406 h 2.21484 l -3.16406,14.8945309375 h -2.26172 L 231.70884,-2.4962308 h -0.11719 c -0.38672,0.5039062 -0.83203,0.9726562 -1.32422,1.3945312 -0.5039,0.43359379 -1.03125,0.77343754 -1.60547,1.01953129 -0.58593,0.24609375 -1.19531,0.36328125 -1.88671,0.36328125 z m 1.05468,-2.39062504 c 0.63282,0 1.24219,-0.2460937 1.85157,-0.7148437 0.60937,-0.4921875 1.13671,-1.1367188 1.64062,-1.9335938 0.46875,-0.8085937 0.82031,-1.6875 1.07813,-2.6601562 0.10546,-0.5039063 0.1875,-0.9375 0.24609,-1.3828125 0.0234,-0.421875 0.0586,-0.8320313 0.0586,-1.2187497 0,-0.808594 -0.22265,-1.464844 -0.66797,-1.96875 -0.44531,-0.527344 -1.01953,-0.773438 -1.76953,-0.773438 -0.52734,0 -1.03125,0.140625 -1.46484,0.421875 -0.48047,0.304688 -0.89063,0.691406 -1.27734,1.183594 -0.38672,0.503906 -0.71485,1.078125 -0.9961,1.7460937 -0.28125,0.6679687 -0.5039,1.3828125 -0.63281,2.1328125 -0.17578,0.7734375 -0.22266,1.546875 -0.22266,2.3554687 0,0.9375 0.1875,1.6523438 0.55078,2.1210938 0.38672,0.4453125 0.91407,0.6914062 1.60547,0.6914062 z m 14.39356,8.7539063 c -0.97266,0 -1.82813,-0.082031 -2.60156,-0.2460938 -0.75,-0.1757812 -1.41797,-0.421875 -1.99219,-0.6914062 V 3.0701754 c 0.38672,0.2226563 0.79687,0.3867188 1.30078,0.5859375 0.46875,0.1875 0.99609,0.328125 1.54687,0.4453125 0.55079,0.082031 1.07813,0.1289063 1.62891,0.1289063 1.07813,0 1.96875,-0.2460938 2.66016,-0.7734375 0.6914,-0.4921875 1.19531,-1.3476563 1.46484,-2.54296876 l 0.19922,-0.85546875 c 0.10547,-0.38671875 0.22266,-0.85546875 0.35156,-1.33593749 0.14063,-0.4921875 0.25781,-0.9140625 0.33985,-1.2421875 h -0.11719 c -0.38672,0.5039062 -0.79688,0.9726562 -1.26563,1.3828125 -0.46875,0.44531249 -0.97265,0.77343749 -1.52343,1.05468749 -0.55079,0.24609375 -1.16016,0.36328125 -1.82813,0.36328125 -0.77344,0 -1.46484,-0.17578125 -2.07422,-0.5625 -0.60937,-0.38671875 -1.11328,-0.96093754 -1.46484,-1.73437504 -0.33985,-0.75 -0.52735,-1.7226562 -0.52735,-2.8828125 0,-1.0546875 0.10547,-2.0742187 0.32813,-3.0703125 0.19922,-0.9960937 0.52734,-1.9453125 0.9375,-2.8007809 0.42187,-0.878907 0.91406,-1.628907 1.5,-2.296875 0.57422,-0.667969 1.24219,-1.183594 1.96875,-1.546875 0.73828,-0.386719 1.57031,-0.550782 2.42578,-0.550782 0.66797,0 1.25391,0.105469 1.72266,0.328125 0.49218,0.222657 0.8789,0.492188 1.21875,0.890625 0.35156,0.351563 0.63281,0.773438 0.85547,1.242188 h 0.10546 l 0.89063,-2.191406 h 2.21484 l -3.35156,15.60937469 c -0.30469,1.44140621 -0.77344,2.60156251 -1.40625,3.46875001 -0.60937,0.8789062 -1.38281,1.4882812 -2.33203,1.875 -0.91406,0.3867187 -1.99219,0.5859375 -3.17578,0.5859375 z m 1.30078,-8.7539063 c 0.41016,0 0.79687,-0.1054687 1.18359,-0.2929687 0.38672,-0.2226563 0.77344,-0.5273438 1.13672,-0.890625 0.36328,-0.3867188 0.69141,-0.8320313 0.9961,-1.3007813 0.30468,-0.5039062 0.55078,-1.0546875 0.77343,-1.6289062 0.22266,-0.5859375 0.38672,-1.1953125 0.52735,-1.828125 0.14062,-0.6445313 0.19922,-1.2773438 0.19922,-1.9101563 0,-0.8320314 -0.19922,-1.5000004 -0.58594,-2.0273434 -0.38672,-0.527344 -1.01953,-0.773438 -1.88672,-0.773438 -0.51563,0 -1.04297,0.140625 -1.48828,0.445313 -0.46875,0.28125 -0.91406,0.691406 -1.27735,1.183593 -0.38671,0.527344 -0.71484,1.113282 -0.96093,1.7812504 -0.28125,0.6914063 -0.48047,1.3828125 -0.60938,2.15625 -0.17578,0.75 -0.22265,1.4882813 -0.22265,2.2734375 0,0.9375 0.1875,1.6523438 0.57421,2.1210938 0.38672,0.4453125 0.91407,0.6914062 1.64063,0.6914062 z m 14.55176,2.39062504 c -0.77344,0 -1.46485,-0.17578125 -2.07422,-0.5625 -0.60938,-0.3515625 -1.10156,-0.93750004 -1.46485,-1.71093754 -0.36328,-0.75 -0.55078,-1.7460937 -0.55078,-2.90625 0,-1.078125 0.10547,-2.109375 0.35157,-3.1289062 0.22265,-0.9960938 0.52734,-1.9335938 0.94921,-2.8007812 0.41016,-0.878906 0.9375,-1.628906 1.52344,-2.261719 0.57422,-0.667969 1.24219,-1.160156 1.99219,-1.546875 0.73828,-0.363281 1.54687,-0.527344 2.37891,-0.527344 0.65625,0 1.21875,0.105469 1.71093,0.328125 0.46875,0.222657 0.89063,0.492188 1.21875,0.890625 0.32813,0.351563 0.60938,0.773438 0.8086,1.242188 h 0.1289 l 0.86719,-2.191406 h 2.21484 l -3.16406,14.8945309375 h -2.26172 L 263.00962,-2.4962308 h -0.11719 c -0.38672,0.5039062 -0.83203,0.9726562 -1.32422,1.3945312 -0.5039,0.43359379 -1.03125,0.77343754 -1.60546,1.01953129 -0.58594,0.24609375 -1.19532,0.36328125 -1.88672,0.36328125 z m 1.05468,-2.39062504 c 0.63282,0 1.24219,-0.2460937 1.85157,-0.7148437 0.60937,-0.4921875 1.13672,-1.1367188 1.64062,-1.9335938 0.46875,-0.8085937 0.82031,-1.6875 1.07813,-2.6601562 0.10547,-0.5039063 0.1875,-0.9375 0.24609,-1.3828125 0.0234,-0.421875 0.0586,-0.8320313 0.0586,-1.2187497 0,-0.808594 -0.22265,-1.464844 -0.66796,-1.96875 -0.44532,-0.527344 -1.01954,-0.773438 -1.76954,-0.773438 -0.52734,0 -1.03125,0.140625 -1.46484,0.421875 -0.48047,0.304688 -0.89062,0.691406 -1.27734,1.183594 -0.38672,0.503906 -0.71485,1.078125 -0.9961,1.7460937 -0.28125,0.6679687 -0.5039,1.3828125 -0.63281,2.1328125 -0.17578,0.7734375 -0.22266,1.546875 -0.22266,2.3554687 0,0.9375 0.1875,1.6523438 0.55079,2.1210938 0.38671,0.4453125 0.91406,0.6914062 1.60546,0.6914062 z m 9.88184,2.1093750375 4.47656,-21.0351559375 h 2.90625 L 271.9188,-1.370625e-4 Z m 8.77441,0 4.47657,-21.0351559375 h 2.90625 L 280.69321,-1.370625e-4 Z M 291.2606,0.28111294 c -0.77344,0 -1.46485,-0.17578125 -2.07422,-0.5625 -0.60938,-0.3515625 -1.10156,-0.93750004 -1.46484,-1.71093754 -0.36329,-0.75 -0.55079,-1.7460937 -0.55079,-2.90625 0,-1.078125 0.10547,-2.109375 0.35157,-3.1289062 0.22265,-0.9960938 0.52734,-1.9335938 0.94922,-2.8007812 0.41015,-0.878906 0.9375,-1.628906 1.52343,-2.261719 0.57422,-0.667969 1.24219,-1.160156 1.99219,-1.546875 0.73828,-0.363281 1.54688,-0.527344 2.37891,-0.527344 0.65625,0 1.21875,0.105469 1.71093,0.328125 0.46875,0.222657 0.89063,0.492188 1.21875,0.890625 0.32813,0.351563 0.60938,0.773438 0.8086,1.242188 h 0.1289 l 0.86719,-2.191406 h 2.21485 L 298.15122,-1.370625e-4 H 295.8895 L 296.19419,-2.4962308 H 296.077 c -0.38671,0.5039062 -0.83203,0.9726562 -1.32421,1.3945312 -0.50391,0.43359379 -1.03125,0.77343754 -1.60547,1.01953129 -0.58594,0.24609375 -1.19532,0.36328125 -1.88672,0.36328125 z m 1.05469,-2.39062504 c 0.63281,0 1.24218,-0.2460937 1.85156,-0.7148437 0.60937,-0.4921875 1.13672,-1.1367188 1.64062,-1.9335938 0.46875,-0.8085937 0.82032,-1.6875 1.07813,-2.6601562 0.10547,-0.5039063 0.1875,-0.9375 0.24609,-1.3828125 0.0234,-0.421875 0.0586,-0.8320313 0.0586,-1.2187497 0,-0.808594 -0.22266,-1.464844 -0.66797,-1.96875 -0.44532,-0.527344 -1.01953,-0.773438 -1.76953,-0.773438 -0.52735,0 -1.03125,0.140625 -1.46485,0.421875 -0.48047,0.304688 -0.89062,0.691406 -1.27734,1.183594 -0.38672,0.503906 -0.71485,1.078125 -0.9961,1.7460937 -0.28125,0.6679687 -0.5039,1.3828125 -0.63281,2.1328125 -0.17578,0.7734375 -0.22265,1.546875 -0.22265,2.3554687 0,0.9375 0.1875,1.6523438 0.55078,2.1210938 0.38672,0.4453125 0.91406,0.6914062 1.60547,0.6914062 z M 302.13853,-1.370625e-4 305.32603,-14.9767 h 2.42578 l -0.30469,2.765625 h 0.0586 c 0.36329,-0.492187 0.77344,-0.996093 1.24219,-1.429687 0.48047,-0.480469 1.03125,-0.867188 1.64063,-1.136719 0.60937,-0.304687 1.30078,-0.46875 2.07422,-0.46875 0.79687,0 1.5,0.164063 2.07421,0.46875 0.58594,0.328125 0.9961,0.773438 1.30079,1.347656 0.30468,0.585938 0.44531,1.277344 0.44531,2.109375 0,0.386719 -0.0234,0.796875 -0.082,1.242188 -0.0586,0.4453124 -0.14063,0.8320312 -0.22266,1.2187499 l -1.91016,8.8593750375 H 311.0565 L 312.99009,-9.1641996 c 0.082,-0.3867187 0.16406,-0.7148437 0.1875,-1.0195314 0.0586,-0.28125 0.082,-0.527344 0.082,-0.773437 0,-0.585938 -0.16406,-1.03125 -0.43359,-1.335938 -0.30469,-0.269531 -0.75,-0.410156 -1.33594,-0.410156 -0.60938,0 -1.24219,0.222656 -1.875,0.691406 -0.66797,0.445313 -1.25391,1.136719 -1.80469,2.0742189 -0.52734,0.9375 -0.96094,2.1328125 -1.26562,3.5976563 l -1.39453,6.3398437375 z M 324.33091,0.28111294 c -1.16016,0 -2.15625,-0.22265625 -2.98828,-0.66796875 -0.83203,-0.4453125 -1.46484,-1.07812499 -1.91016,-1.93359379 -0.43359,-0.8320312 -0.65625,-1.8632812 -0.65625,-3.046875 0,-1.21875 0.1875,-2.4140625 0.52735,-3.5507812 0.35156,-1.1601562 0.85547,-2.2148442 1.51172,-3.1523442 0.66796,-0.9375 1.47656,-1.710937 2.4375,-2.273437 0.94921,-0.550781 2.02734,-0.820313 3.24609,-0.820313 1.48828,0 2.60156,0.304688 3.375,0.960938 0.75,0.667969 1.10156,1.558594 1.10156,2.683594 0,0.726562 -0.16406,1.417968 -0.49219,2.0507809 -0.36328,0.6679688 -0.89062,1.21875 -1.58203,1.6875 -0.6914,0.46875 -1.60547,0.8320313 -2.68359,1.1132813 -1.07813,0.2460937 -2.37891,0.3867187 -3.90234,0.3867187 h -0.55079 c 0,0.140625 -0.0351,0.3046875 -0.0351,0.4453125 0,0.1640625 0,0.3046875 0,0.4335938 0,1.03125 0.25781,1.8632812 0.78515,2.4726562 0.55079,0.5742188 1.32422,0.8789063 2.37891,0.8789063 0.71484,0 1.40625,-0.082031 2.01563,-0.2695313 0.63281,-0.2226562 1.35937,-0.5039062 2.13281,-0.8671875 v 2.39062504 c -0.71485,0.328125 -1.44141,0.57421875 -2.15625,0.7968749975 C 326.15904,0.19908169 325.30357,0.28111294 324.33091,0.28111294 Z m -1.85156,-8.75390624 c 1.07812,0 2.05078,-0.1054688 2.90625,-0.3046875 0.85547,-0.2226563 1.52344,-0.5273438 2.02734,-0.9609375 0.49219,-0.4218747 0.73828,-0.9726567 0.73828,-1.6406247 0,-0.445313 -0.16406,-0.832032 -0.43359,-1.101563 -0.30469,-0.28125 -0.78516,-0.421875 -1.39453,-0.421875 -0.55078,0 -1.10156,0.199219 -1.65235,0.527344 -0.55078,0.363281 -1.05468,0.855469 -1.5,1.523437 -0.44531,0.667969 -0.77343,1.4414067 -1.01953,2.3789067 z m 14.91797,8.75390624 c -0.91407,0 -1.72266,-0.0585937 -2.41407,-0.22265625 -0.6914,-0.1640625 -1.30078,-0.421875 -1.85156,-0.69140625 V -3.2110746 c 0.55078,0.328125 1.19531,0.609375 1.91016,0.8554688 0.72656,0.2226562 1.46484,0.3632812 2.23828,0.3632812 0.64453,0 1.19531,-0.1171875 1.66406,-0.28125 0.44531,-0.1640625 0.8086,-0.4101562 1.05469,-0.7148437 0.24609,-0.328125 0.36328,-0.6914063 0.36328,-1.1367188 0,-0.328125 -0.0586,-0.6328125 -0.19922,-0.890625 -0.14062,-0.2109375 -0.38672,-0.4921875 -0.75,-0.7382812 -0.32812,-0.2578125 -0.83203,-0.5625 -1.46484,-0.9140625 -0.69141,-0.3867188 -1.24219,-0.7734375 -1.71094,-1.1601563 -0.44531,-0.3984375 -0.80859,-0.8320312 -1.05469,-1.3007812 -0.22265,-0.4804688 -0.32812,-1.0312497 -0.32812,-1.6640627 0,-0.914062 0.1875,-1.6875 0.63281,-2.355469 0.41016,-0.632812 1.01953,-1.136718 1.82813,-1.488281 0.77343,-0.363281 1.71093,-0.527344 2.76562,-0.527344 0.89063,0 1.74609,0.08203 2.51953,0.304688 0.77344,0.1875 1.46485,0.46875 2.09766,0.773437 l -0.9375,2.238282 c -0.49219,-0.246094 -1.05469,-0.492188 -1.62891,-0.691407 -0.60937,-0.199218 -1.27734,-0.304687 -2.02734,-0.304687 -0.69141,0 -1.24219,0.164062 -1.6875,0.503906 -0.4336,0.328125 -0.63281,0.773438 -0.63281,1.300781 0,0.304688 0.0586,0.550782 0.19921,0.796875 0.10547,0.2460942 0.35157,0.4687504 0.69141,0.7148442 0.32813,0.2578125 0.79688,0.5625 1.40625,0.890625 0.63281,0.3632812 1.19531,0.7148437 1.6875,1.078125 0.50391,0.3867187 0.89063,0.8085937 1.16016,1.3007812 0.28125,0.5039063 0.42187,1.078125 0.42187,1.7695313 0,1.0546875 -0.25781,1.9101562 -0.72656,2.6367187 -0.49219,0.7148438 -1.18359,1.24218754 -2.07422,1.60546879 -0.87891,0.3515625 -1.93359,0.52734375 -3.15234,0.52734375 z m 0,0"
       style="fill:#593d80;fill-opacity:1;fill-rule:nonzero;stroke:none"
       aria-label="Universidad de Magallanes"
       transform="matrix(1.3333333,0,0,1.3333333,-2.8044947,167.86346)" />
  </g>
</svg>
