<?xml version="1.0" encoding="UTF-8" standalone="no"?>
<svg
   width="3853.75"
   height="899.31061"
   viewBox="0 0 3853.75 899.31061"
   xml:space="preserve"
   style="clip-rule:evenodd;fill-rule:evenodd;stroke-linejoin:round;stroke-miterlimit:2"
   data-astro-cid-j7pv25f6="true"
   version="1.1"
   id="svg20"
   sodipodi:docname="nf-core_logo.svg"
   inkscape:version="1.4.2 (unknown)"
   xmlns:inkscape="http://www.inkscape.org/namespaces/inkscape"
   xmlns:sodipodi="http://sodipodi.sourceforge.net/DTD/sodipodi-0.dtd"
   xmlns="http://www.w3.org/2000/svg"
   xmlns:svg="http://www.w3.org/2000/svg"><sodipodi:namedview
     id="namedview20"
     pagecolor="#ffffff"
     bordercolor="#000000"
     borderopacity="0.25"
     inkscape:showpageshadow="2"
     inkscape:pageopacity="0.0"
     inkscape:pagecheckerboard="0"
     inkscape:deskcolor="#d1d1d1"
     inkscape:zoom="0.32425452"
     inkscape:cx="1953.7122"
     inkscape:cy="462.59957"
     inkscape:window-width="1528"
     inkscape:window-height="1674"
     inkscape:window-x="0"
     inkscape:window-y="0"
     inkscape:window-maximized="0"
     inkscape:current-layer="svg20" /><g
     id="g7"
     transform="translate(-177.083,-91.444)"><path
       d="m 281.25,414.167 c 46.667,-10.417 88.333,-15.834 125,-15.834 62.5,0 109.167,12.084 140.833,36.667 31.667,24.583 47.084,64.583 47.084,120.833 v 297.5 H 463.75 v -271.25 c 0,-50.833 -28.75,-76.25 -85.833,-76.25 -12.917,0 -25.834,1.667 -39.167,4.167 -13.333,2.917 -23.75,6.25 -31.667,10.417 V 852.5 h -130 v -405 C 200,435.833 234.583,424.583 281.25,414.167 Z"
       style="fill:#24af63;fill-rule:nonzero"
       id="path1" /><path
       d="m 742.917,510.417 h -64.584 v -100 H 743.75 V 400 c 0.417,-66.25 15.833,-112.5 45.833,-138.75 30,-25.833 70.834,-38.75 122.917,-38.75 9.167,0 19.583,0.833 30.417,2.5 11.25,1.667 20,3.75 27.083,6.25 v 114.583 c -6.25,-6.25 -12.917,-11.25 -19.167,-14.583 -6.25,-3.333 -14.583,-5 -24.583,-5 -16.25,0 -29.167,4.167 -38.333,12.917 -9.167,8.75 -14.167,23.75 -14.167,44.583 V 410 H 970 v 99.583 H 872.917 V 852.5 H 742.5 V 510.417 Z"
       style="fill:#24af63;fill-rule:nonzero"
       id="path2" /><rect
       x="1065.42"
       y="540"
       width="266.66699"
       height="90"
       style="fill:#21af62;fill-rule:nonzero"
       id="rect2" /><path
       d="M 1332.08,540.417 V 630 h -254.166 l 89.583,-89.583 z"
       style="fill:url(#_Linear1);fill-rule:nonzero"
       id="path3" /><path
       d="m 1550,839.167 c -35,-17.084 -62.917,-42.5 -83.333,-76.667 -20.834,-34.167 -31.25,-75.833 -31.25,-124.583 0,-78.75 20.833,-138.334 62.916,-178.75 42.084,-40.417 97.917,-60.834 167.917,-60.834 24.583,0 49.167,2.5 74.167,7.5 25,5 47.083,11.667 66.666,20.417 v 112.083 c -23.75,-10.416 -45,-18.333 -63.75,-24.166 -18.75,-5.417 -37.5,-8.334 -55.833,-8.334 -38.333,0 -68.333,9.584 -90,28.334 -21.667,18.75 -32.5,48.333 -32.5,88.75 0,45 10,78.333 30,99.583 20,21.667 52.917,32.5 98.333,32.5 34.584,0 72.5,-11.667 114.584,-35 v 111.25 c -20.834,11.25 -42.5,19.583 -65,25 -22.5,5.417 -47.5,8.333 -75.834,8.333 -42.916,0 -82.083,-8.75 -117.083,-25.416 z"
       style="fill:#ffffff;fill-rule:nonzero"
       id="path4" /><path
       d="m 1930.42,806.667 c -37.5,-39.584 -55.834,-98.334 -55.834,-176.667 0,-81.667 18.334,-141.25 55.417,-178.333 37.083,-37.5 93.333,-55.834 168.333,-55.834 75,0 131.667,19.167 169.584,57.084 37.916,38.333 56.666,97.083 56.666,177.083 0,77.083 -19.583,135.417 -58.75,175.833 -39.166,40.417 -95,60.417 -167.916,60.417 -74.167,0 -130.417,-20 -167.5,-59.583 z m 240.416,-78.334 c 16.25,-22.5 24.584,-55.416 24.584,-98.333 0,-47.083 -7.917,-80.833 -24.167,-100.833 -15.833,-20 -40.417,-30 -72.917,-30 -33.75,0 -58.333,10 -72.916,30 -15,20 -22.5,53.75 -22.5,100.833 0,45 7.916,78.333 23.333,99.583 15.417,21.667 39.583,32.5 72.083,32.5 32.084,0 56.25,-11.25 72.5,-33.75 z"
       style="fill:#ffffff;fill-rule:nonzero"
       id="path5" /><path
       d="m 2414.58,457.083 c 8.75,-7.5 24.167,-15.833 45.834,-25.416 21.666,-9.167 46.25,-17.5 73.333,-24.167 27.083,-6.667 53.333,-10 78.333,-10 48.334,0 82.084,7.5 100.417,21.667 v 95.416 c -23.333,-5.416 -56.667,-7.916 -100.417,-7.916 -27.5,0 -50,1.666 -67.5,4.166 V 852.917 H 2414.164 V 457.083 Z"
       style="fill:#ffffff;fill-rule:nonzero"
       id="path6" /><path
       d="m 3173.75,665.833 h -292.083 c 11.25,61.25 52.083,91.667 123.333,91.667 21.667,0 42.5,-2.917 63.333,-9.167 20.834,-6.25 42.5,-14.166 65.834,-24.166 V 836.25 c -47.917,20 -101.25,29.583 -160.834,29.583 -45,0 -84.166,-9.166 -117.916,-27.5 -33.75,-18.333 -60,-44.583 -78.75,-79.166 -18.75,-34.584 -27.917,-75 -27.917,-121.667 0,-77.083 19.167,-136.667 57.083,-178.75 38.334,-42.083 92.917,-62.917 163.334,-62.917 138.333,0 206.25,90 204.583,270 z m -292.917,-82.916 h 163.334 c -4.167,-31.667 -12.5,-53.75 -25,-67.5 -12.5,-13.334 -31.25,-20 -55.417,-20 -46.667,0 -74.167,29.166 -82.917,87.5 z"
       style="fill:#ffffff;fill-rule:nonzero"
       id="path7" /></g><g
     id="UR4fCq.tif"
     transform="translate(-177.083,-91.444)"><g
       id="g13"><path
         d="m 4030,490.417 v 14.166 c -0.417,0 -0.417,0 -0.833,0.417 -2.5,-2.083 -5,-3.75 -7.084,-5.833 -15.833,-13.334 -32.916,-25.417 -51.666,-34.584 -3.334,-1.666 -6.25,-3.333 -10,-4.166 -0.417,-0.417 -0.834,-0.834 -1.25,-0.834 -7.084,-2.916 -14.167,-5.416 -21.667,-7.083 -16.25,-3.75 -32.5,-4.167 -48.75,-0.833 -20.833,4.166 -39.583,13.333 -57.083,25 -17.5,11.666 -32.917,25.416 -47.5,40.416 -2.5,2.5 -2.5,2.5 -4.167,-0.833 -7.917,-16.25 -16.25,-32.083 -27.083,-46.667 -8.334,-11.25 -17.5,-21.25 -29.167,-28.75 -12.083,-7.5 -25,-10 -38.75,-6.666 -17.083,4.166 -30.833,14.166 -43.75,25.416 -7.917,6.25 -15,12.917 -22.083,19.584 -6.667,5.833 -12.917,12.083 -20,17.916 -1.25,1.25 -2.084,0.834 -2.917,0 -6.667,-7.083 -13.75,-13.333 -22.083,-17.916 -12.084,-6.667 -25,-7.5 -37.917,-2.917 -10.833,3.75 -20.833,9.583 -30.417,15.417 -3.75,2.5 -7.5,5 -11.666,7.083 v -0.833 c 0.416,-0.834 0.416,-1.667 0.416,-2.084 0.417,-17.5 2.084,-35 5,-52.5 3.75,-23.75 9.584,-47.083 20.417,-69.166 7.917,-16.25 18.333,-30.834 32.083,-43.334 17.917,-16.25 38.75,-26.25 61.667,-32.916 24.583,-7.084 50,-10 75.833,-11.25 10,-0.417 20.417,-0.834 30.417,-1.25 5,2.083 10,3.333 15.417,5 7.5,2.083 15,4.583 22.083,6.666 3.75,1.25 7.5,2.917 11.25,4.167 14.583,5.417 28.75,12.083 41.25,21.667 3.333,2.5 6.25,5 9.583,7.916 -0.833,-2.5 -1.666,-4.583 -2.5,-6.666 -5.416,-14.584 -13.75,-26.667 -27.083,-34.584 -5.417,-3.333 -11.667,-6.25 -17.083,-9.166 0.416,0 37.5,-5 55.416,-5.834 15.417,-0.416 31.25,-0.416 46.667,1.25 17.917,2.084 35.833,5.417 52.917,11.667 25.416,9.167 47.083,24.167 63.75,45.417 14.583,18.75 23.75,40 30,62.5 5.833,22.5 8.333,45.833 9.166,68.75 -0.833,8.75 -0.833,17.5 -0.833,26.25 z"
         style="fill:#24af63;fill-rule:nonzero"
         id="path8" /><path
         d="m 3897.92,832.917 c 10,-4.167 19.583,-8.75 28.75,-14.167 10.833,-6.667 21.25,-13.75 31.666,-21.25 8.75,-6.667 17.084,-13.333 25,-20 4.584,-4.167 9.584,-7.917 14.167,-12.083 0.833,-0.834 0.833,-0.417 1.25,0.416 1.667,6.667 2.917,12.917 4.167,19.584 1.666,8.75 3.333,17.916 4.166,27.083 1.25,10.417 1.667,20.833 0.834,31.667 -0.834,12.916 -3.334,25.833 -7.5,38.333 -2.917,7.5 -6.25,14.583 -10.417,21.25 -5.417,8.75 -12.083,16.25 -19.583,23.333 -9.167,8.334 -19.167,15.417 -30,21.25 -14.584,8.334 -30.417,14.167 -46.25,19.167 -15.417,4.583 -30.834,7.917 -46.667,10.833 -4.167,0.834 -8.75,1.667 -12.917,1.25 -9.166,-0.416 -17.916,-2.5 -26.666,-5.833 -12.917,-5 -24.584,-12.917 -37.084,-18.75 -7.083,-3.333 -14.166,-5.417 -21.666,-6.25 -10,-0.833 -18.334,2.917 -25.417,9.583 -5.417,5 -10.417,10.417 -15.417,15.417 -8.75,8.75 -19.166,14.583 -31.25,16.25 -7.916,1.25 -16.25,0.833 -24.166,-0.417 -11.25,-1.666 -22.5,-4.166 -33.334,-7.5 -15.833,-5 -30.416,-12.5 -43.75,-22.5 -12.5,-9.583 -22.5,-21.25 -30.833,-35 -7.917,-13.75 -13.333,-28.333 -16.667,-43.75 -1.666,-6.666 -2.5,-13.75 -2.916,-20.416 -0.834,-9.584 -1.667,-19.167 -1.25,-29.167 0.416,-13.75 1.25,-27.083 3.333,-41.25 1.667,1.25 2.917,2.917 4.583,4.167 8.75,7.916 18.334,15 28.75,21.25 11.667,6.666 23.75,12.083 37.084,15.416 8.75,2.5 17.916,3.75 27.083,4.584 7.5,0.416 15,0.833 22.5,0.416 8.75,-0.416 17.5,-1.25 26.25,-3.333 1.25,0 2.083,0 3.333,-0.417 7.917,-1.666 15.834,-3.333 23.334,-5.833 8.75,-2.5 17.916,-5.417 26.25,-8.75 8.333,-3.333 16.666,-6.667 25,-10 2.5,-1.25 3.75,-0.417 5.833,0.833 13.75,10.834 28.75,20 45,26.25 17.917,7.084 36.667,10.417 55.833,8.75 13.334,-2.083 26.667,-5.416 39.584,-10.416 z"
         style="fill:#24af63;fill-rule:nonzero"
         id="path9" /><path
         d="m 3897.92,832.917 c -12.917,5 -26.25,8.75 -40.417,10 -19.583,1.666 -37.917,-1.667 -55.833,-8.75 -16.25,-6.25 -31.25,-15.417 -45,-26.25 -2.084,-1.667 -3.334,-2.084 -5.834,-0.834 -8.333,3.75 -16.666,7.084 -25,10 -8.75,3.334 -17.5,6.25 -26.25,8.75 -7.916,2.084 -15.416,4.167 -23.333,5.834 -1.25,0.416 -2.083,0.416 -3.333,0.416 2.916,-3.333 5.416,-6.25 8.333,-9.583 11.25,-12.917 18.75,-27.5 23.333,-43.75 6.25,-22.083 12.917,-44.583 17.917,-67.083 3.75,-16.667 7.083,-33.334 9.583,-50 1.667,-12.084 2.5,-24.167 3.334,-36.25 0.833,-11.25 0.416,-22.5 -0.417,-33.334 -2.083,-33.75 -9.583,-66.25 -23.333,-97.083 -8.334,-18.333 -22.084,-31.25 -42.5,-36.25 -8.75,-2.083 -17.084,-1.667 -25.834,1.25 -0.833,0.417 -1.25,0.417 -2.083,0.417 12.917,-11.25 26.667,-21.25 43.75,-25.417 13.75,-3.333 26.667,-0.833 38.75,6.667 12.083,7.5 21.25,17.5 29.167,28.75 10.833,14.583 19.166,30.416 27.083,46.666 1.667,3.334 1.667,3.334 4.167,0.834 14.583,-15 30.416,-28.75 47.5,-40.417 17.5,-11.667 36.25,-20.833 57.083,-25 16.25,-3.333 32.5,-2.917 48.75,0.833 7.5,1.667 14.583,4.167 21.667,7.084 0.416,0.416 1.25,0.416 1.25,0.833 -20.834,0.417 -38.75,8.333 -55,20.417 -7.917,5.833 -15,12.5 -20.417,20.833 -4.583,6.667 -7.917,14.167 -11.667,21.667 -7.083,15 -12.916,30.416 -17.083,46.666 -3.75,13.75 -5.833,27.917 -7.083,42.084 -0.834,10.833 -1.25,22.083 -0.834,32.916 0.417,13.334 1.667,27.084 3.334,40.417 2.916,22.5 7.083,45 10.416,67.083 2.084,12.5 3.75,25 5.834,37.084 2.916,17.916 12.916,31.666 27.5,42.083 1.25,-0.417 1.666,0 2.5,0.417 z"
         style="fill:#ecdc86;fill-rule:nonzero"
         id="path10" /><path
         d="m 3757.63,297.114 c 3.334,0 5.986,0.791 8.902,-1.293 2.5,-2.083 4.502,-4.216 4.085,-7.133 -0.417,-2.5 -0.833,-5 -1.25,-7.5 1.291,-0.28 2.303,-0.771 3.553,-0.771 6.322,2.942 12.28,6.188 17.697,9.521 13.333,8.334 21.667,20.417 27.083,34.584 0.834,2.083 1.667,4.583 2.5,6.666 -3.333,-2.5 -6.25,-5.416 -9.583,-7.916 -12.5,-9.584 -26.25,-16.25 -41.25,-21.667 -3.75,-0.833 -7.987,-3.241 -11.737,-4.491 z"
         style="fill:#396e35;fill-rule:nonzero"
         id="path11" /><path
         d="m 3736.13,285.225 v 5.417 c -5,-1.667 -11.137,-3.063 -16.13,-5.225 5.417,0 11.13,-0.192 16.13,-0.192 z"
         style="fill:#396e35;fill-rule:nonzero"
         id="path12" /><path
         d="m 3869.05,91.444 h 17.5 c 14.167,0.834 28.334,2.917 42.084,7.5 10.416,3.75 12.916,10.417 6.666,19.584 -4.583,6.666 -10.833,11.25 -17.083,15.416 -8.333,5.834 -17.5,10.417 -27.083,13.75 -10,3.75 -19.584,0 -25.417,-10 -2.083,-2.916 -3.333,-6.25 -4.167,-10 -0.416,-1.25 -0.833,-1.666 -1.666,-1.666 -22.084,-3.75 -41.667,1.25 -57.917,17.083 -13.333,12.917 -21.25,28.75 -26.667,46.25 -5,15.833 -7.5,31.667 -8.333,47.917 -0.833,14.583 0.417,29.166 2.5,43.333 0.417,2.5 1.25,5 1.25,7.5 0.417,2.917 -0.417,5.833 -3.333,7.5 -2.917,2.083 -5.834,1.667 -9.167,1.667 -7.5,-2.084 -15,-4.584 -22.083,-6.667 v -5.417 c 0,-7.5 0,-15.416 0.416,-22.916 1.667,-30.417 6.25,-60.417 17.917,-88.75 8.75,-21.25 21.25,-39.584 38.75,-54.167 14.583,-12.083 31.25,-20 49.583,-24.167 8.334,-2.083 17.084,-3.333 26.25,-3.75 z"
         style="fill:#5a3f3c;fill-rule:nonzero"
         id="path13" /></g></g><defs
     id="defs20"><linearGradient
       id="_Linear1"
       x1="0"
       y1="0"
       x2="1"
       y2="0"
       gradientUnits="userSpaceOnUse"
       gradientTransform="matrix(157.828,123.308,-123.308,157.828,1147.76,540.633)"><stop
         offset="0"
         style="stop-color:#0d552b;stop-opacity:1"
         id="stop13" /><stop
         offset="0.21"
         style="stop-color:#0d552b;stop-opacity:1"
         id="stop14" /><stop
         offset="0.31"
         style="stop-color:#176837;stop-opacity:1"
         id="stop15" /><stop
         offset="0.46"
         style="stop-color:#1f8448;stop-opacity:1"
         id="stop16" /><stop
         offset="0.6"
         style="stop-color:#239a56;stop-opacity:1"
         id="stop17" /><stop
         offset="0.74"
         style="stop-color:#24a860;stop-opacity:1"
         id="stop18" /><stop
         offset="0.85"
         style="stop-color:#25af64;stop-opacity:1"
         id="stop19" /><stop
         offset="1"
         style="stop-color:#25af64;stop-opacity:1"
         id="stop20" /></linearGradient></defs></svg>
